<svg width="1618" height="503" viewBox="0 0 1618 503" fill="none" xmlns="http://www.w3.org/2000/svg">
<rect width="1618" height="450" fill="#1D1313"/>
<path d="M121 349.451L297.5 420L623.851 259H1427.66L1415 228.5" stroke="url(#paint0_linear_2025_18)" stroke-width="151"/>
<mask id="path-3-outside-1_2025_18" maskUnits="userSpaceOnUse" x="148" y="108" width="1319" height="308" fill="black">
<rect fill="white" x="148" y="108" width="1319" height="308"/>
<path d="M232.604 332.879C219.713 332.293 204.625 332 187.34 332C175.426 332 163.023 332.293 150.133 332.879C149.742 331.316 149.547 330.242 149.547 329.656C149.547 329.168 149.742 327.947 150.133 325.994C153.355 325.604 155.943 325.213 157.896 324.822C159.947 324.334 162.486 323.602 165.514 322.625C168.639 321.648 170.982 320.281 172.545 318.523C174.107 316.668 174.938 314.471 175.035 311.932C175.426 302.264 175.621 270.477 175.621 216.57H155.846C155.26 215.008 154.967 213.299 154.967 211.443C154.967 209.295 155.26 207.488 155.846 206.023H175.621V190.643C175.621 179.9 176.988 169.744 179.723 160.174C182.555 150.506 186.607 141.863 191.881 134.246C197.252 126.629 204.283 120.574 212.975 116.082C221.764 111.59 231.627 109.344 242.564 109.344C252.721 109.344 261.217 111.932 268.053 117.107C274.986 122.186 278.453 128.924 278.453 137.322C278.453 142.498 276.744 146.99 273.326 150.799C269.908 154.607 265.514 156.512 260.143 156.512C254.967 156.512 250.816 155.242 247.691 152.703C244.664 150.066 243.15 146.746 243.15 142.742C243.15 139.91 243.98 137.176 245.641 134.539C247.398 131.902 249.84 130.047 252.965 128.973C251.012 125.75 248.668 123.699 245.934 122.82C243.199 121.844 238.951 121.355 233.189 121.355C224.205 121.355 216.686 124.578 210.631 131.023C204.674 137.469 201.695 145.965 201.695 156.512V206.023H233.482C234.068 207.488 234.361 209.295 234.361 211.443C234.361 213.299 234.068 215.008 233.482 216.57H201.695C201.695 264.91 202.086 296.697 202.867 311.932C202.965 314.471 203.941 316.668 205.797 318.523C207.652 320.281 210.338 321.648 213.854 322.625C217.369 323.602 220.396 324.334 222.936 324.822C225.475 325.213 228.697 325.604 232.604 325.994C232.994 327.947 233.189 329.266 233.189 329.949C233.189 330.73 232.994 331.707 232.604 332.879ZM328.697 198.846C338.365 198.846 347.057 200.555 354.771 203.973C362.584 207.391 369.225 212.127 374.693 218.182C380.162 224.236 384.361 231.512 387.291 240.008C390.221 248.406 391.686 257.586 391.686 267.547C391.686 287.859 385.973 304.363 374.547 317.059C363.219 329.852 347.936 336.248 328.697 336.248C319.127 336.248 310.436 334.588 302.623 331.268C294.908 327.85 288.316 323.113 282.848 317.059C277.379 310.906 273.131 303.631 270.104 295.232C267.174 286.834 265.709 277.605 265.709 267.547C265.709 257.586 267.174 248.406 270.104 240.008C273.033 231.512 277.184 224.236 282.555 218.182C288.023 212.127 294.664 207.391 302.477 203.973C310.289 200.555 319.029 198.846 328.697 198.846ZM328.697 208.367C318.736 208.367 310.777 213.201 304.82 222.869C298.961 232.537 296.031 247.43 296.031 267.547C296.031 287.664 298.961 302.557 304.82 312.225C310.777 321.795 318.736 326.58 328.697 326.58C338.658 326.58 346.568 321.746 352.428 312.078C358.385 302.41 361.363 287.566 361.363 267.547C361.363 257.488 360.582 248.748 359.02 241.326C357.457 233.904 355.26 227.752 352.428 222.869C349.596 217.986 346.178 214.373 342.174 212.029C338.17 209.588 333.678 208.367 328.697 208.367ZM420.836 211.443C439.781 209.49 456.285 205.486 470.348 199.432C472.789 200.408 474.498 201.678 475.475 203.24V228.436C479.088 221.6 484.459 214.959 491.588 208.514C498.814 202.068 506.334 198.846 514.146 198.846C520.006 198.846 524.742 200.604 528.355 204.119C532.066 207.537 533.922 212.273 533.922 218.328C533.922 224.09 532.213 228.582 528.795 231.805C525.377 235.027 521.08 236.639 515.904 236.639C511.119 236.639 507.164 235.125 504.039 232.098C501.012 228.973 499.352 224.871 499.059 219.793C494.957 221.551 490.27 225.457 484.996 231.512C479.82 237.566 476.646 243.572 475.475 249.529C475.475 271.307 475.865 292.107 476.646 311.932C476.744 314.471 477.672 316.668 479.43 318.523C481.188 320.281 483.775 321.648 487.193 322.625C490.611 323.602 493.443 324.334 495.689 324.822C497.936 325.213 500.865 325.604 504.479 325.994C505.064 327.166 505.357 328.387 505.357 329.656C505.357 330.633 505.064 331.707 504.479 332.879C489.83 332.293 475.328 332 460.973 332C449.059 332 436.656 332.293 423.766 332.879C423.375 331.316 423.18 330.242 423.18 329.656C423.18 329.168 423.375 327.947 423.766 325.994C426.988 325.604 429.625 325.213 431.676 324.822C433.727 324.334 436.266 323.602 439.293 322.625C442.32 321.648 444.615 320.281 446.178 318.523C447.74 316.668 448.57 314.471 448.668 311.932C449.059 302.264 449.254 290.545 449.254 276.775C449.254 272.186 449.205 264.373 449.107 253.338C449.01 242.303 448.961 232.635 448.961 224.334C443.395 220.916 434.02 218.914 420.836 218.328C420.445 216.766 420.25 215.545 420.25 214.666C420.25 214.08 420.445 213.006 420.836 211.443ZM665.172 244.695C665.172 260.125 660.191 272.479 650.23 281.756C640.27 291.033 628.16 295.672 613.902 295.672C607.164 295.672 600.865 295.184 595.006 294.207C589.146 297.918 586.217 302.508 586.217 307.977C586.217 312.371 588.951 315.594 594.42 317.645C599.986 319.598 609.459 320.574 622.838 320.574C624.986 320.574 629.039 320.477 634.996 320.281C640.953 320.086 645.689 319.988 649.205 319.988C676.451 319.988 690.074 331.17 690.074 353.533C690.074 359.881 688.17 366.57 684.361 373.602C680.65 380.633 675.523 387.176 668.98 393.23C662.535 399.383 654.381 404.461 644.518 408.465C634.752 412.469 624.449 414.471 613.609 414.471C596.52 414.471 583.58 411.297 574.791 404.949C566.002 398.699 561.607 390.887 561.607 381.512C561.607 374.969 564 368.426 568.785 361.883C573.668 355.34 580.895 349.48 590.465 344.305C571.617 341.57 562.193 334.246 562.193 322.332C562.193 316.668 564.293 311.346 568.492 306.365C572.789 301.287 578.6 296.014 585.924 290.545C575.963 284.979 569.078 278.582 565.27 271.355C561.461 264.129 559.557 255.926 559.557 246.746C559.557 241.082 560.875 235.418 563.512 229.754C566.246 223.992 569.908 218.865 574.498 214.373C579.088 209.783 584.703 206.072 591.344 203.24C598.082 200.311 605.162 198.846 612.584 198.846C619.42 198.846 625.035 199.383 629.43 200.457C633.824 201.434 639.293 203.191 645.836 205.73C652.379 208.27 658.531 210.369 664.293 212.029C664.781 208.221 666.295 204.998 668.834 202.361C671.373 199.627 674.645 198.26 678.648 198.26C682.262 198.26 685.484 199.773 688.316 202.801C691.246 205.828 692.711 209.295 692.711 213.201C692.711 217.205 691.441 220.672 688.902 223.602C686.461 226.434 683.336 227.85 679.527 227.85C677.281 227.85 675.035 227.459 672.789 226.678C670.543 225.896 668.688 225.115 667.223 224.334C665.855 223.455 663.805 222.088 661.07 220.232C658.336 218.279 656.188 216.814 654.625 215.838L654.039 216.57C657.652 219.793 660.387 223.943 662.242 229.021C664.195 234.002 665.172 239.227 665.172 244.695ZM588.707 370.965C588.707 374.871 589.293 378.582 590.465 382.098C591.637 385.613 593.492 388.934 596.031 392.059C598.57 395.184 602.135 397.625 606.725 399.383C611.412 401.238 616.881 402.166 623.131 402.166C631.139 402.166 638.219 400.896 644.371 398.357C650.621 395.916 655.357 392.84 658.58 389.129C661.803 385.418 664.195 381.805 665.758 378.289C667.32 374.871 668.102 371.746 668.102 368.914C668.102 365.008 667.76 361.688 667.076 358.953C666.393 356.316 665.074 353.729 663.121 351.189C661.266 348.748 658.336 346.893 654.332 345.623C650.328 344.354 645.25 343.719 639.098 343.719C635.777 343.719 629.576 343.914 620.494 344.305C611.412 344.695 605.602 344.891 603.062 344.891C598.57 348.016 595.055 351.873 592.516 356.463C589.977 361.053 588.707 365.887 588.707 370.965ZM589.293 247.039C589.293 273.113 597.057 286.15 612.584 286.15C620.006 286.15 625.67 282.928 629.576 276.482C633.482 270.037 635.436 259.344 635.436 244.402C635.436 237.566 634.654 231.658 633.092 226.678C631.529 221.6 629.479 217.84 626.939 215.398C624.498 212.859 622.008 211.053 619.469 209.979C617.027 208.904 614.537 208.367 611.998 208.367C605.455 208.367 600.035 211.443 595.738 217.596C591.441 223.748 589.293 233.562 589.293 247.039ZM821.91 254.363H742.076C741.686 260.223 741.49 265.398 741.49 269.891C741.783 284.441 746.031 296.111 754.234 304.9C762.438 313.592 773.424 317.938 787.193 317.938C790.904 317.938 794.371 317.547 797.594 316.766C800.816 315.887 803.453 314.91 805.504 313.836C807.652 312.762 809.85 311.199 812.096 309.148C814.342 307.098 815.953 305.486 816.93 304.314C818.004 303.045 819.42 301.189 821.178 298.748C822.936 296.209 824.107 294.598 824.693 293.914C827.037 294.402 828.941 295.477 830.406 297.137C825.523 310.223 817.955 320.037 807.701 326.58C797.447 333.025 786.314 336.248 774.303 336.248C768.346 336.248 762.535 335.467 756.871 333.904C751.305 332.439 745.885 329.998 740.611 326.58C735.338 323.162 730.748 318.963 726.842 313.982C722.936 308.904 719.811 302.605 717.467 295.086C715.123 287.469 713.951 279.07 713.951 269.891C713.951 249.285 720.25 232.293 732.848 218.914C745.445 205.535 760.924 198.846 779.283 198.846C787.389 198.846 794.42 200.018 800.377 202.361C806.432 204.607 811.119 207.684 814.439 211.59C817.857 215.496 820.348 219.793 821.91 224.48C823.57 229.07 824.4 234.002 824.4 239.275C824.4 244.158 823.57 249.188 821.91 254.363ZM775.768 208.367C769.029 208.367 762.633 211.346 756.578 217.303C750.621 223.26 746.324 232.293 743.688 244.402H796.422C797.398 240.691 797.887 237.469 797.887 234.734C797.887 227.117 796.129 220.818 792.613 215.838C789.098 210.857 783.482 208.367 775.768 208.367ZM888.572 285.846H911.649V308.923H888.572V285.846ZM888.572 262.769H911.649V285.846H888.572V262.769ZM888.572 239.692H911.649V262.769H888.572V239.692ZM888.572 216.615H911.649V239.692H888.572V216.615ZM888.572 193.538H911.649V216.615H888.572V193.538ZM888.572 170.462H911.649V193.538H888.572V170.462ZM865.495 193.538H888.572V216.615H865.495V193.538ZM911.649 193.538H934.726V216.615H911.649V193.538ZM888.572 147.385H911.649V170.462H888.572V147.385ZM911.649 124.308H934.726V147.385H911.649V124.308ZM934.726 147.385H957.803V170.462H934.726V147.385ZM888.572 308.923H911.649V332H888.572V308.923ZM865.495 332H888.572V355.077H865.495V332ZM934.726 193.538H957.803V216.615H934.726V193.538ZM980.925 308.923H1004V332H980.925V308.923ZM1027.08 308.923H1050.16V332H1027.08V308.923ZM1004 285.846H1027.08V308.923H1004V285.846ZM1004 262.769H1027.08V285.846H1004V262.769ZM1004 239.692H1027.08V262.769H1004V239.692ZM1004 216.615H1027.08V239.692H1004V216.615ZM1004 193.538H1027.08V216.615H1004V193.538ZM1004 170.462H1027.08V193.538H1004V170.462ZM1004 147.385H1027.08V170.462H1004V147.385ZM1027.08 124.308H1050.16V147.385H1027.08V124.308ZM1073.21 308.923H1096.29V332H1073.21V308.923ZM1096.29 285.846H1119.36V308.923H1096.29V285.846ZM1096.29 262.769H1119.36V285.846H1096.29V262.769ZM1096.29 239.692H1119.36V262.769H1096.29V239.692ZM1096.29 216.615H1119.36V239.692H1096.29V216.615ZM1119.36 308.923H1142.44V332H1119.36V308.923ZM1142.44 308.923H1165.52V332H1142.44V308.923ZM1165.52 285.846H1188.59V308.923H1165.52V285.846ZM1165.52 262.769H1188.59V285.846H1165.52V262.769ZM1165.52 239.692H1188.59V262.769H1165.52V239.692ZM1165.52 216.615H1188.59V239.692H1165.52V216.615ZM1119.36 193.538H1142.44V216.615H1119.36V193.538ZM1142.44 193.538H1165.52V216.615H1142.44V193.538ZM1188.59 193.538H1211.67V216.615H1188.59V193.538ZM1234.64 216.615H1257.71V239.692H1234.64V216.615ZM1257.71 193.538H1280.79V216.615H1257.71V193.538ZM1280.79 216.615H1303.87V239.692H1280.79V216.615ZM1280.79 239.692H1303.87V262.769H1280.79V239.692ZM1280.79 262.769H1303.87V285.846H1280.79V262.769ZM1280.79 285.846H1303.87V308.923H1280.79V285.846ZM1257.71 308.923H1280.79V332H1257.71V308.923ZM1303.87 308.923H1326.94V332H1303.87V308.923ZM1326.94 308.923H1350.02V332H1326.94V308.923ZM1303.87 193.538H1326.94V216.615H1303.87V193.538ZM1326.94 193.538H1350.02V216.615H1326.94V193.538ZM1350.02 216.615H1373.1V239.692H1350.02V216.615ZM1350.02 239.692H1373.1V262.769H1350.02V239.692ZM1350.02 262.769H1373.1V285.846H1350.02V262.769ZM1350.02 285.846H1373.1V308.923H1350.02V285.846ZM1373.1 193.538H1396.17V216.615H1373.1V193.538ZM1396.17 193.538H1419.25V216.615H1396.17V193.538ZM1373.1 308.923H1396.17V332H1373.1V308.923ZM1396.17 308.923H1419.25V332H1396.17V308.923ZM1419.25 285.846H1442.33V308.923H1419.25V285.846ZM1419.25 262.769H1442.33V285.846H1419.25V262.769ZM1419.25 239.692H1442.33V262.769H1419.25V239.692ZM1419.25 216.615H1442.33V239.692H1419.25V216.615ZM1442.33 193.538H1465.4V216.615H1442.33V193.538Z"/>
</mask>
<path d="M232.604 332.879C219.713 332.293 204.625 332 187.34 332C175.426 332 163.023 332.293 150.133 332.879C149.742 331.316 149.547 330.242 149.547 329.656C149.547 329.168 149.742 327.947 150.133 325.994C153.355 325.604 155.943 325.213 157.896 324.822C159.947 324.334 162.486 323.602 165.514 322.625C168.639 321.648 170.982 320.281 172.545 318.523C174.107 316.668 174.938 314.471 175.035 311.932C175.426 302.264 175.621 270.477 175.621 216.57H155.846C155.26 215.008 154.967 213.299 154.967 211.443C154.967 209.295 155.26 207.488 155.846 206.023H175.621V190.643C175.621 179.9 176.988 169.744 179.723 160.174C182.555 150.506 186.607 141.863 191.881 134.246C197.252 126.629 204.283 120.574 212.975 116.082C221.764 111.59 231.627 109.344 242.564 109.344C252.721 109.344 261.217 111.932 268.053 117.107C274.986 122.186 278.453 128.924 278.453 137.322C278.453 142.498 276.744 146.99 273.326 150.799C269.908 154.607 265.514 156.512 260.143 156.512C254.967 156.512 250.816 155.242 247.691 152.703C244.664 150.066 243.15 146.746 243.15 142.742C243.15 139.91 243.98 137.176 245.641 134.539C247.398 131.902 249.84 130.047 252.965 128.973C251.012 125.75 248.668 123.699 245.934 122.82C243.199 121.844 238.951 121.355 233.189 121.355C224.205 121.355 216.686 124.578 210.631 131.023C204.674 137.469 201.695 145.965 201.695 156.512V206.023H233.482C234.068 207.488 234.361 209.295 234.361 211.443C234.361 213.299 234.068 215.008 233.482 216.57H201.695C201.695 264.91 202.086 296.697 202.867 311.932C202.965 314.471 203.941 316.668 205.797 318.523C207.652 320.281 210.338 321.648 213.854 322.625C217.369 323.602 220.396 324.334 222.936 324.822C225.475 325.213 228.697 325.604 232.604 325.994C232.994 327.947 233.189 329.266 233.189 329.949C233.189 330.73 232.994 331.707 232.604 332.879ZM328.697 198.846C338.365 198.846 347.057 200.555 354.771 203.973C362.584 207.391 369.225 212.127 374.693 218.182C380.162 224.236 384.361 231.512 387.291 240.008C390.221 248.406 391.686 257.586 391.686 267.547C391.686 287.859 385.973 304.363 374.547 317.059C363.219 329.852 347.936 336.248 328.697 336.248C319.127 336.248 310.436 334.588 302.623 331.268C294.908 327.85 288.316 323.113 282.848 317.059C277.379 310.906 273.131 303.631 270.104 295.232C267.174 286.834 265.709 277.605 265.709 267.547C265.709 257.586 267.174 248.406 270.104 240.008C273.033 231.512 277.184 224.236 282.555 218.182C288.023 212.127 294.664 207.391 302.477 203.973C310.289 200.555 319.029 198.846 328.697 198.846ZM328.697 208.367C318.736 208.367 310.777 213.201 304.82 222.869C298.961 232.537 296.031 247.43 296.031 267.547C296.031 287.664 298.961 302.557 304.82 312.225C310.777 321.795 318.736 326.58 328.697 326.58C338.658 326.58 346.568 321.746 352.428 312.078C358.385 302.41 361.363 287.566 361.363 267.547C361.363 257.488 360.582 248.748 359.02 241.326C357.457 233.904 355.26 227.752 352.428 222.869C349.596 217.986 346.178 214.373 342.174 212.029C338.17 209.588 333.678 208.367 328.697 208.367ZM420.836 211.443C439.781 209.49 456.285 205.486 470.348 199.432C472.789 200.408 474.498 201.678 475.475 203.24V228.436C479.088 221.6 484.459 214.959 491.588 208.514C498.814 202.068 506.334 198.846 514.146 198.846C520.006 198.846 524.742 200.604 528.355 204.119C532.066 207.537 533.922 212.273 533.922 218.328C533.922 224.09 532.213 228.582 528.795 231.805C525.377 235.027 521.08 236.639 515.904 236.639C511.119 236.639 507.164 235.125 504.039 232.098C501.012 228.973 499.352 224.871 499.059 219.793C494.957 221.551 490.27 225.457 484.996 231.512C479.82 237.566 476.646 243.572 475.475 249.529C475.475 271.307 475.865 292.107 476.646 311.932C476.744 314.471 477.672 316.668 479.43 318.523C481.188 320.281 483.775 321.648 487.193 322.625C490.611 323.602 493.443 324.334 495.689 324.822C497.936 325.213 500.865 325.604 504.479 325.994C505.064 327.166 505.357 328.387 505.357 329.656C505.357 330.633 505.064 331.707 504.479 332.879C489.83 332.293 475.328 332 460.973 332C449.059 332 436.656 332.293 423.766 332.879C423.375 331.316 423.18 330.242 423.18 329.656C423.18 329.168 423.375 327.947 423.766 325.994C426.988 325.604 429.625 325.213 431.676 324.822C433.727 324.334 436.266 323.602 439.293 322.625C442.32 321.648 444.615 320.281 446.178 318.523C447.74 316.668 448.57 314.471 448.668 311.932C449.059 302.264 449.254 290.545 449.254 276.775C449.254 272.186 449.205 264.373 449.107 253.338C449.01 242.303 448.961 232.635 448.961 224.334C443.395 220.916 434.02 218.914 420.836 218.328C420.445 216.766 420.25 215.545 420.25 214.666C420.25 214.08 420.445 213.006 420.836 211.443ZM665.172 244.695C665.172 260.125 660.191 272.479 650.23 281.756C640.27 291.033 628.16 295.672 613.902 295.672C607.164 295.672 600.865 295.184 595.006 294.207C589.146 297.918 586.217 302.508 586.217 307.977C586.217 312.371 588.951 315.594 594.42 317.645C599.986 319.598 609.459 320.574 622.838 320.574C624.986 320.574 629.039 320.477 634.996 320.281C640.953 320.086 645.689 319.988 649.205 319.988C676.451 319.988 690.074 331.17 690.074 353.533C690.074 359.881 688.17 366.57 684.361 373.602C680.65 380.633 675.523 387.176 668.98 393.23C662.535 399.383 654.381 404.461 644.518 408.465C634.752 412.469 624.449 414.471 613.609 414.471C596.52 414.471 583.58 411.297 574.791 404.949C566.002 398.699 561.607 390.887 561.607 381.512C561.607 374.969 564 368.426 568.785 361.883C573.668 355.34 580.895 349.48 590.465 344.305C571.617 341.57 562.193 334.246 562.193 322.332C562.193 316.668 564.293 311.346 568.492 306.365C572.789 301.287 578.6 296.014 585.924 290.545C575.963 284.979 569.078 278.582 565.27 271.355C561.461 264.129 559.557 255.926 559.557 246.746C559.557 241.082 560.875 235.418 563.512 229.754C566.246 223.992 569.908 218.865 574.498 214.373C579.088 209.783 584.703 206.072 591.344 203.24C598.082 200.311 605.162 198.846 612.584 198.846C619.42 198.846 625.035 199.383 629.43 200.457C633.824 201.434 639.293 203.191 645.836 205.73C652.379 208.27 658.531 210.369 664.293 212.029C664.781 208.221 666.295 204.998 668.834 202.361C671.373 199.627 674.645 198.26 678.648 198.26C682.262 198.26 685.484 199.773 688.316 202.801C691.246 205.828 692.711 209.295 692.711 213.201C692.711 217.205 691.441 220.672 688.902 223.602C686.461 226.434 683.336 227.85 679.527 227.85C677.281 227.85 675.035 227.459 672.789 226.678C670.543 225.896 668.688 225.115 667.223 224.334C665.855 223.455 663.805 222.088 661.07 220.232C658.336 218.279 656.188 216.814 654.625 215.838L654.039 216.57C657.652 219.793 660.387 223.943 662.242 229.021C664.195 234.002 665.172 239.227 665.172 244.695ZM588.707 370.965C588.707 374.871 589.293 378.582 590.465 382.098C591.637 385.613 593.492 388.934 596.031 392.059C598.57 395.184 602.135 397.625 606.725 399.383C611.412 401.238 616.881 402.166 623.131 402.166C631.139 402.166 638.219 400.896 644.371 398.357C650.621 395.916 655.357 392.84 658.58 389.129C661.803 385.418 664.195 381.805 665.758 378.289C667.32 374.871 668.102 371.746 668.102 368.914C668.102 365.008 667.76 361.688 667.076 358.953C666.393 356.316 665.074 353.729 663.121 351.189C661.266 348.748 658.336 346.893 654.332 345.623C650.328 344.354 645.25 343.719 639.098 343.719C635.777 343.719 629.576 343.914 620.494 344.305C611.412 344.695 605.602 344.891 603.062 344.891C598.57 348.016 595.055 351.873 592.516 356.463C589.977 361.053 588.707 365.887 588.707 370.965ZM589.293 247.039C589.293 273.113 597.057 286.15 612.584 286.15C620.006 286.15 625.67 282.928 629.576 276.482C633.482 270.037 635.436 259.344 635.436 244.402C635.436 237.566 634.654 231.658 633.092 226.678C631.529 221.6 629.479 217.84 626.939 215.398C624.498 212.859 622.008 211.053 619.469 209.979C617.027 208.904 614.537 208.367 611.998 208.367C605.455 208.367 600.035 211.443 595.738 217.596C591.441 223.748 589.293 233.562 589.293 247.039ZM821.91 254.363H742.076C741.686 260.223 741.49 265.398 741.49 269.891C741.783 284.441 746.031 296.111 754.234 304.9C762.438 313.592 773.424 317.938 787.193 317.938C790.904 317.938 794.371 317.547 797.594 316.766C800.816 315.887 803.453 314.91 805.504 313.836C807.652 312.762 809.85 311.199 812.096 309.148C814.342 307.098 815.953 305.486 816.93 304.314C818.004 303.045 819.42 301.189 821.178 298.748C822.936 296.209 824.107 294.598 824.693 293.914C827.037 294.402 828.941 295.477 830.406 297.137C825.523 310.223 817.955 320.037 807.701 326.58C797.447 333.025 786.314 336.248 774.303 336.248C768.346 336.248 762.535 335.467 756.871 333.904C751.305 332.439 745.885 329.998 740.611 326.58C735.338 323.162 730.748 318.963 726.842 313.982C722.936 308.904 719.811 302.605 717.467 295.086C715.123 287.469 713.951 279.07 713.951 269.891C713.951 249.285 720.25 232.293 732.848 218.914C745.445 205.535 760.924 198.846 779.283 198.846C787.389 198.846 794.42 200.018 800.377 202.361C806.432 204.607 811.119 207.684 814.439 211.59C817.857 215.496 820.348 219.793 821.91 224.48C823.57 229.07 824.4 234.002 824.4 239.275C824.4 244.158 823.57 249.188 821.91 254.363ZM775.768 208.367C769.029 208.367 762.633 211.346 756.578 217.303C750.621 223.26 746.324 232.293 743.688 244.402H796.422C797.398 240.691 797.887 237.469 797.887 234.734C797.887 227.117 796.129 220.818 792.613 215.838C789.098 210.857 783.482 208.367 775.768 208.367ZM888.572 285.846H911.649V308.923H888.572V285.846ZM888.572 262.769H911.649V285.846H888.572V262.769ZM888.572 239.692H911.649V262.769H888.572V239.692ZM888.572 216.615H911.649V239.692H888.572V216.615ZM888.572 193.538H911.649V216.615H888.572V193.538ZM888.572 170.462H911.649V193.538H888.572V170.462ZM865.495 193.538H888.572V216.615H865.495V193.538ZM911.649 193.538H934.726V216.615H911.649V193.538ZM888.572 147.385H911.649V170.462H888.572V147.385ZM911.649 124.308H934.726V147.385H911.649V124.308ZM934.726 147.385H957.803V170.462H934.726V147.385ZM888.572 308.923H911.649V332H888.572V308.923ZM865.495 332H888.572V355.077H865.495V332ZM934.726 193.538H957.803V216.615H934.726V193.538ZM980.925 308.923H1004V332H980.925V308.923ZM1027.08 308.923H1050.16V332H1027.08V308.923ZM1004 285.846H1027.08V308.923H1004V285.846ZM1004 262.769H1027.08V285.846H1004V262.769ZM1004 239.692H1027.08V262.769H1004V239.692ZM1004 216.615H1027.08V239.692H1004V216.615ZM1004 193.538H1027.08V216.615H1004V193.538ZM1004 170.462H1027.08V193.538H1004V170.462ZM1004 147.385H1027.08V170.462H1004V147.385ZM1027.08 124.308H1050.16V147.385H1027.08V124.308ZM1073.21 308.923H1096.29V332H1073.21V308.923ZM1096.29 285.846H1119.36V308.923H1096.29V285.846ZM1096.29 262.769H1119.36V285.846H1096.29V262.769ZM1096.29 239.692H1119.36V262.769H1096.29V239.692ZM1096.29 216.615H1119.36V239.692H1096.29V216.615ZM1119.36 308.923H1142.44V332H1119.36V308.923ZM1142.44 308.923H1165.52V332H1142.44V308.923ZM1165.52 285.846H1188.59V308.923H1165.52V285.846ZM1165.52 262.769H1188.59V285.846H1165.52V262.769ZM1165.52 239.692H1188.59V262.769H1165.52V239.692ZM1165.52 216.615H1188.59V239.692H1165.52V216.615ZM1119.36 193.538H1142.44V216.615H1119.36V193.538ZM1142.44 193.538H1165.52V216.615H1142.44V193.538ZM1188.59 193.538H1211.67V216.615H1188.59V193.538ZM1234.64 216.615H1257.71V239.692H1234.64V216.615ZM1257.71 193.538H1280.79V216.615H1257.71V193.538ZM1280.79 216.615H1303.87V239.692H1280.79V216.615ZM1280.79 239.692H1303.87V262.769H1280.79V239.692ZM1280.79 262.769H1303.87V285.846H1280.79V262.769ZM1280.79 285.846H1303.87V308.923H1280.79V285.846ZM1257.71 308.923H1280.79V332H1257.71V308.923ZM1303.87 308.923H1326.94V332H1303.87V308.923ZM1326.94 308.923H1350.02V332H1326.94V308.923ZM1303.87 193.538H1326.94V216.615H1303.87V193.538ZM1326.94 193.538H1350.02V216.615H1326.94V193.538ZM1350.02 216.615H1373.1V239.692H1350.02V216.615ZM1350.02 239.692H1373.1V262.769H1350.02V239.692ZM1350.02 262.769H1373.1V285.846H1350.02V262.769ZM1350.02 285.846H1373.1V308.923H1350.02V285.846ZM1373.1 193.538H1396.17V216.615H1373.1V193.538ZM1396.17 193.538H1419.25V216.615H1396.17V193.538ZM1373.1 308.923H1396.17V332H1373.1V308.923ZM1396.17 308.923H1419.25V332H1396.17V308.923ZM1419.25 285.846H1442.33V308.923H1419.25V285.846ZM1419.25 262.769H1442.33V285.846H1419.25V262.769ZM1419.25 239.692H1442.33V262.769H1419.25V239.692ZM1419.25 216.615H1442.33V239.692H1419.25V216.615ZM1442.33 193.538H1465.4V216.615H1442.33V193.538Z" fill="#E2E3FF"/>
<path d="M232.604 332.879L232.558 333.878L233.313 333.912L233.552 333.195L232.604 332.879ZM150.133 332.879L149.163 333.121L149.361 333.915L150.178 333.878L150.133 332.879ZM150.133 325.994L150.012 325.001L149.294 325.088L149.152 325.798L150.133 325.994ZM157.896 324.822L158.093 325.803L158.11 325.799L158.128 325.795L157.896 324.822ZM165.514 322.625L165.215 321.67L165.207 321.673L165.514 322.625ZM172.545 318.523L173.292 319.188L173.301 319.178L173.31 319.168L172.545 318.523ZM175.035 311.932L174.036 311.891L174.036 311.893L175.035 311.932ZM175.621 216.57H176.621V215.57H175.621V216.57ZM155.846 216.57L154.909 216.921L155.153 217.57H155.846V216.57ZM155.846 206.023V205.023H155.169L154.917 205.652L155.846 206.023ZM175.621 206.023V207.023H176.621V206.023H175.621ZM179.723 160.174L178.763 159.893L178.761 159.899L179.723 160.174ZM191.881 134.246L191.064 133.67L191.059 133.677L191.881 134.246ZM212.975 116.082L212.519 115.192L212.515 115.194L212.975 116.082ZM268.053 117.107L267.449 117.905L267.455 117.909L267.462 117.914L268.053 117.107ZM247.691 152.703L247.035 153.457L247.048 153.468L247.061 153.479L247.691 152.703ZM245.641 134.539L244.809 133.984L244.801 133.995L244.794 134.006L245.641 134.539ZM252.965 128.973L253.29 129.918L254.463 129.515L253.82 128.454L252.965 128.973ZM245.934 122.82L245.597 123.762L245.612 123.767L245.628 123.772L245.934 122.82ZM210.631 131.023L209.902 130.339L209.896 130.345L210.631 131.023ZM201.695 206.023H200.695V207.023H201.695V206.023ZM233.482 206.023L234.411 205.652L234.159 205.023H233.482V206.023ZM233.482 216.57V217.57H234.175L234.419 216.921L233.482 216.57ZM201.695 216.57V215.57H200.695V216.57H201.695ZM202.867 311.932L203.867 311.893L203.866 311.88L202.867 311.932ZM205.797 318.523L205.09 319.231L205.099 319.24L205.109 319.249L205.797 318.523ZM222.936 324.822L222.747 325.804L222.765 325.808L222.783 325.811L222.936 324.822ZM232.604 325.994L233.584 325.798L233.439 325.073L232.703 324.999L232.604 325.994ZM232.604 332.879L232.649 331.88C219.739 331.293 204.635 331 187.34 331V332V333C204.615 333 219.687 333.293 232.558 333.878L232.604 332.879ZM187.34 332V331C175.409 331 162.992 331.293 150.087 331.88L150.133 332.879L150.178 333.878C163.055 333.293 175.442 333 187.34 333V332ZM150.133 332.879L151.103 332.636C150.709 331.061 150.547 330.101 150.547 329.656H149.547H148.547C148.547 330.383 148.775 331.572 149.163 333.121L150.133 332.879ZM149.547 329.656H150.547C150.547 329.501 150.583 329.146 150.681 328.533C150.776 327.94 150.919 327.161 151.113 326.19L150.133 325.994L149.152 325.798C148.956 326.781 148.806 327.588 148.706 328.217C148.609 328.824 148.547 329.323 148.547 329.656H149.547ZM150.133 325.994L150.253 326.987C153.488 326.595 156.104 326.201 158.093 325.803L157.896 324.822L157.7 323.842C155.783 324.225 153.223 324.612 150.012 325.001L150.133 325.994ZM157.896 324.822L158.128 325.795C160.214 325.299 162.78 324.558 165.821 323.577L165.514 322.625L165.207 321.673C162.193 322.645 159.681 323.369 157.665 323.849L157.896 324.822ZM165.514 322.625L165.812 323.579C169.045 322.569 171.571 321.124 173.292 319.188L172.545 318.523L171.798 317.859C170.394 319.438 168.232 320.728 165.215 321.671L165.514 322.625ZM172.545 318.523L173.31 319.168C175.023 317.133 175.929 314.72 176.034 311.97L175.035 311.932L174.036 311.893C173.946 314.221 173.192 316.203 171.78 317.879L172.545 318.523ZM175.035 311.932L176.034 311.972C176.426 302.278 176.621 270.465 176.621 216.57H175.621H174.621C174.621 270.488 174.426 302.249 174.036 311.891L175.035 311.932ZM175.621 216.57V215.57H155.846V216.57V217.57H175.621V216.57ZM155.846 216.57L156.782 216.219C156.243 214.781 155.967 213.192 155.967 211.443H154.967H153.967C153.967 213.405 154.277 215.235 154.909 216.921L155.846 216.57ZM154.967 211.443H155.967C155.967 209.379 156.249 207.707 156.774 206.395L155.846 206.023L154.917 205.652C154.27 207.269 153.967 209.211 153.967 211.443H154.967ZM155.846 206.023V207.023H175.621V206.023V205.023H155.846V206.023ZM175.621 206.023H176.621V190.643H175.621H174.621V206.023H175.621ZM175.621 190.643H176.621C176.621 179.986 177.977 169.923 180.684 160.449L179.723 160.174L178.761 159.899C175.999 169.566 174.621 179.815 174.621 190.643H175.621ZM179.723 160.174L180.682 160.455C183.487 150.881 187.496 142.337 192.703 134.815L191.881 134.246L191.059 133.677C185.719 141.389 181.622 150.131 178.763 159.893L179.723 160.174ZM191.881 134.246L192.698 134.822C197.972 127.343 204.878 121.393 213.434 116.97L212.975 116.082L212.515 115.194C203.689 119.756 196.532 125.915 191.064 133.67L191.881 134.246ZM212.975 116.082L213.43 116.972C222.063 112.56 231.768 110.344 242.564 110.344V109.344V108.344C231.486 108.344 221.464 110.62 212.52 115.192L212.975 116.082ZM242.564 109.344V110.344C252.544 110.344 260.817 112.884 267.449 117.905L268.053 117.107L268.656 116.31C261.616 110.98 252.897 108.344 242.564 108.344V109.344ZM268.053 117.107L267.462 117.914C274.145 122.809 277.453 129.251 277.453 137.322H278.453H279.453C279.453 128.596 275.827 121.562 268.644 116.301L268.053 117.107ZM278.453 137.322H277.453C277.453 142.255 275.833 146.508 272.582 150.131L273.326 150.799L274.07 151.467C277.655 147.472 279.453 142.741 279.453 137.322H278.453ZM273.326 150.799L272.582 150.131C269.364 153.717 265.246 155.512 260.143 155.512V156.512V157.512C265.782 157.512 270.452 155.498 274.07 151.467L273.326 150.799ZM260.143 156.512V155.512C255.13 155.512 251.223 154.284 248.322 151.927L247.691 152.703L247.061 153.479C250.41 156.2 254.804 157.512 260.143 157.512V156.512ZM247.691 152.703L248.348 151.949C245.538 149.502 244.15 146.456 244.15 142.742H243.15H242.15C242.15 147.036 243.79 150.631 247.035 153.457L247.691 152.703ZM243.15 142.742H244.15C244.15 140.117 244.917 137.566 246.487 135.072L245.641 134.539L244.794 134.006C243.044 136.786 242.15 139.703 242.15 142.742H243.15ZM245.641 134.539L246.473 135.094C248.103 132.648 250.363 130.925 253.29 129.918L252.965 128.973L252.64 128.027C249.317 129.169 246.693 131.157 244.809 133.984L245.641 134.539ZM252.965 128.973L253.82 128.454C251.782 125.091 249.267 122.841 246.24 121.868L245.934 122.82L245.628 123.772C248.069 124.557 250.242 126.409 252.11 129.491L252.965 128.973ZM245.934 122.82L246.27 121.879C243.367 120.842 238.976 120.355 233.189 120.355V121.355V122.355C238.926 122.355 243.032 122.846 245.597 123.762L245.934 122.82ZM233.189 121.355V120.355C223.934 120.355 216.149 123.689 209.902 130.339L210.631 131.023L211.36 131.708C217.222 125.468 224.476 122.355 233.189 122.355V121.355ZM210.631 131.023L209.896 130.345C203.735 137.011 200.695 145.767 200.695 156.512H201.695H202.695C202.695 146.163 205.612 137.927 211.365 131.702L210.631 131.023ZM201.695 156.512H200.695V206.023H201.695H202.695V156.512H201.695ZM201.695 206.023V207.023H233.482V206.023V205.023H201.695V206.023ZM233.482 206.023L232.554 206.395C233.079 207.707 233.361 209.379 233.361 211.443H234.361H235.361C235.361 209.211 235.058 207.269 234.411 205.652L233.482 206.023ZM234.361 211.443H233.361C233.361 213.192 233.085 214.781 232.546 216.219L233.482 216.57L234.419 216.921C235.051 215.235 235.361 213.405 235.361 211.443H234.361ZM233.482 216.57V215.57H201.695V216.57V217.57H233.482V216.57ZM201.695 216.57H200.695C200.695 264.905 201.086 296.718 201.868 311.983L202.867 311.932L203.866 311.88C203.086 296.676 202.695 264.915 202.695 216.57H201.695ZM202.867 311.932L201.868 311.97C201.976 314.77 203.063 317.203 205.09 319.231L205.797 318.523L206.504 317.816C204.82 316.133 203.954 314.172 203.866 311.893L202.867 311.932ZM205.797 318.523L205.109 319.249C207.123 321.157 209.976 322.586 213.586 323.589L213.854 322.625L214.121 321.661C210.7 320.711 208.182 319.405 206.485 317.797L205.797 318.523ZM213.854 322.625L213.586 323.589C217.118 324.57 220.173 325.309 222.747 325.804L222.936 324.822L223.124 323.84C220.62 323.359 217.62 322.633 214.121 321.661L213.854 322.625ZM222.936 324.822L222.783 325.811C225.347 326.205 228.588 326.598 232.504 326.989L232.604 325.994L232.703 324.999C228.806 324.609 225.603 324.221 223.088 323.834L222.936 324.822ZM232.604 325.994L231.623 326.19C232.016 328.158 232.189 329.38 232.189 329.949H233.189H234.189C234.189 329.151 233.972 327.737 233.584 325.798L232.604 325.994ZM233.189 329.949H232.189C232.189 330.579 232.029 331.441 231.655 332.563L232.604 332.879L233.552 333.195C233.959 331.973 234.189 330.882 234.189 329.949H233.189ZM354.771 203.973L354.366 204.887L354.371 204.889L354.771 203.973ZM387.291 240.008L386.346 240.334L386.347 240.337L387.291 240.008ZM374.547 317.059L373.804 316.39L373.798 316.396L374.547 317.059ZM302.623 331.268L302.218 332.182L302.225 332.185L302.232 332.188L302.623 331.268ZM282.848 317.059L282.1 317.723L282.106 317.729L282.848 317.059ZM270.104 295.232L269.159 295.562L269.163 295.572L270.104 295.232ZM270.104 240.008L271.048 240.337L271.049 240.334L270.104 240.008ZM282.555 218.182L281.813 217.511L281.807 217.518L282.555 218.182ZM304.82 222.869L303.969 222.345L303.965 222.351L304.82 222.869ZM304.82 312.225L303.965 312.743L303.971 312.753L304.82 312.225ZM352.428 312.078L351.576 311.554L351.573 311.56L352.428 312.078ZM342.174 212.029L341.653 212.883L341.661 212.888L341.669 212.892L342.174 212.029ZM328.697 198.846V199.846C338.246 199.846 346.796 201.533 354.366 204.887L354.771 203.973L355.177 203.058C347.317 199.576 338.484 197.846 328.697 197.846V198.846ZM354.771 203.973L354.371 204.889C362.059 208.253 368.582 212.907 373.951 218.852L374.693 218.182L375.435 217.511C369.867 211.347 363.109 206.529 355.172 203.057L354.771 203.973ZM374.693 218.182L373.951 218.852C379.321 224.797 383.455 231.952 386.346 240.334L387.291 240.008L388.236 239.682C385.267 231.071 381.003 223.676 375.435 217.511L374.693 218.182ZM387.291 240.008L386.347 240.337C389.235 248.618 390.686 257.685 390.686 267.547H391.686H392.686C392.686 257.487 391.206 248.195 388.235 239.678L387.291 240.008ZM391.686 267.547H390.686C390.686 287.662 385.034 303.912 373.804 316.39L374.547 317.059L375.29 317.728C386.912 304.815 392.686 288.057 392.686 267.547H391.686ZM374.547 317.059L373.798 316.396C362.685 328.946 347.689 335.248 328.697 335.248V336.248V337.248C348.182 337.248 363.753 330.757 375.296 317.722L374.547 317.059ZM328.697 336.248V335.248C319.244 335.248 310.688 333.609 303.014 330.347L302.623 331.268L302.232 332.188C310.183 335.567 319.01 337.248 328.697 337.248V336.248ZM302.623 331.268L303.028 330.353C295.437 326.99 288.961 322.335 283.59 316.388L282.848 317.059L282.106 317.729C287.672 323.891 294.379 328.709 302.218 332.182L302.623 331.268ZM282.848 317.059L283.595 316.394C278.218 310.345 274.032 303.182 271.044 294.893L270.104 295.232L269.163 295.572C272.23 304.08 276.54 311.468 282.1 317.723L282.848 317.059ZM270.104 295.232L271.048 294.903C268.159 286.623 266.709 277.508 266.709 267.547H265.709H264.709C264.709 277.703 266.188 287.045 269.159 295.562L270.104 295.232ZM265.709 267.547H266.709C266.709 257.685 268.159 248.618 271.048 240.337L270.104 240.008L269.159 239.678C266.189 248.195 264.709 257.487 264.709 267.547H265.709ZM270.104 240.008L271.049 240.334C273.94 231.948 278.028 224.791 283.303 218.845L282.555 218.182L281.807 217.518C276.339 223.682 272.126 231.075 269.158 239.682L270.104 240.008ZM282.555 218.182L283.297 218.852C288.666 212.907 295.189 208.253 302.877 204.889L302.477 203.973L302.076 203.057C294.139 206.529 287.381 211.347 281.813 217.511L282.555 218.182ZM302.477 203.973L302.877 204.889C310.548 201.533 319.149 199.846 328.697 199.846V198.846V197.846C318.91 197.846 310.03 199.576 302.076 203.057L302.477 203.973ZM328.697 208.367V207.367C318.335 207.367 310.078 212.43 303.969 222.345L304.82 222.869L305.672 223.394C311.477 213.972 319.137 209.367 328.697 209.367V208.367ZM304.82 222.869L303.965 222.351C297.963 232.255 295.031 247.37 295.031 267.547H296.031H297.031C297.031 247.489 299.959 232.82 305.676 223.387L304.82 222.869ZM296.031 267.547H295.031C295.031 287.724 297.963 302.839 303.965 312.743L304.82 312.225L305.676 311.706C299.959 302.274 297.031 287.605 297.031 267.547H296.031ZM304.82 312.225L303.971 312.753C310.082 322.571 318.34 327.58 328.697 327.58V326.58V325.58C319.132 325.58 311.472 321.019 305.669 311.696L304.82 312.225ZM328.697 326.58V327.58C339.061 327.58 347.271 322.515 353.283 312.596L352.428 312.078L351.573 311.56C345.865 320.977 338.256 325.58 328.697 325.58V326.58ZM352.428 312.078L353.279 312.603C359.382 302.698 362.363 287.629 362.363 267.547H361.363H360.363C360.363 287.504 357.387 302.123 351.576 311.554L352.428 312.078ZM361.363 267.547H362.363C362.363 257.44 361.579 248.628 359.998 241.12L359.02 241.326L358.041 241.532C359.585 248.868 360.363 257.537 360.363 267.547H361.363ZM359.02 241.326L359.998 241.12C358.421 233.628 356.193 227.368 353.293 222.367L352.428 222.869L351.563 223.371C354.327 228.136 356.493 234.181 358.041 241.532L359.02 241.326ZM352.428 222.869L353.293 222.367C350.393 217.367 346.861 213.614 342.679 211.166L342.174 212.029L341.669 212.892C345.494 215.132 348.799 218.605 351.563 223.371L352.428 222.869ZM342.174 212.029L342.694 211.176C338.524 208.632 333.85 207.367 328.697 207.367V208.367V209.367C333.506 209.367 337.816 210.543 341.653 212.883L342.174 212.029ZM420.836 211.443L420.733 210.449L420.036 210.521L419.866 211.201L420.836 211.443ZM470.348 199.432L470.719 198.503L470.334 198.349L469.952 198.513L470.348 199.432ZM475.475 203.24H476.475V202.953L476.323 202.71L475.475 203.24ZM475.475 228.436H474.475L476.359 228.903L475.475 228.436ZM491.588 208.514L490.922 207.767L490.917 207.772L491.588 208.514ZM528.355 204.119L527.658 204.836L527.668 204.845L527.678 204.855L528.355 204.119ZM504.039 232.098L503.321 232.793L503.332 232.805L503.343 232.816L504.039 232.098ZM499.059 219.793L500.057 219.735L499.975 218.312L498.665 218.874L499.059 219.793ZM484.996 231.512L484.242 230.855L484.236 230.862L484.996 231.512ZM475.475 249.529L474.493 249.336L474.475 249.432V249.529H475.475ZM476.646 311.932L477.646 311.893L477.646 311.892L476.646 311.932ZM479.43 318.523L478.704 319.211L478.713 319.221L478.723 319.231L479.43 318.523ZM495.689 324.822L495.477 325.799L495.497 325.804L495.518 325.807L495.689 324.822ZM504.479 325.994L505.373 325.547L505.129 325.059L504.586 325L504.479 325.994ZM504.479 332.879L504.439 333.878L505.084 333.904L505.373 333.326L504.479 332.879ZM423.766 332.879L422.795 333.121L422.994 333.915L423.811 333.878L423.766 332.879ZM423.766 325.994L423.645 325.001L422.927 325.088L422.785 325.798L423.766 325.994ZM431.676 324.822L431.863 325.805L431.885 325.8L431.907 325.795L431.676 324.822ZM446.178 318.523L446.925 319.188L446.934 319.178L446.943 319.168L446.178 318.523ZM448.668 311.932L447.669 311.891L447.669 311.893L448.668 311.932ZM448.961 224.334H449.961V223.775L449.484 223.482L448.961 224.334ZM420.836 218.328L419.866 218.571L420.047 219.294L420.792 219.327L420.836 218.328ZM420.836 211.443L420.938 212.438C439.961 210.477 456.568 206.453 470.743 200.35L470.348 199.432L469.952 198.513C456.002 204.519 439.601 208.503 420.733 210.449L420.836 211.443ZM470.348 199.432L469.976 200.36C472.302 201.29 473.802 202.45 474.627 203.77L475.475 203.24L476.323 202.71C475.195 200.905 473.276 199.526 470.719 198.503L470.348 199.432ZM475.475 203.24H474.475V228.436H475.475H476.475V203.24H475.475ZM475.475 228.436L476.359 228.903C479.906 222.192 485.196 215.641 492.259 209.255L491.588 208.514L490.917 207.772C483.722 214.277 478.27 221.007 474.591 227.968L475.475 228.436ZM491.588 208.514L492.254 209.26C499.343 202.937 506.634 199.846 514.146 199.846V198.846V197.846C506.034 197.846 498.286 201.199 490.922 207.767L491.588 208.514ZM514.146 198.846V199.846C519.791 199.846 524.262 201.531 527.658 204.836L528.355 204.119L529.053 203.402C525.223 199.676 520.221 197.846 514.146 197.846V198.846ZM528.355 204.119L527.678 204.855C531.143 208.046 532.922 212.492 532.922 218.328H533.922H534.922C534.922 212.055 532.99 207.028 529.033 203.384L528.355 204.119ZM533.922 218.328H532.922C532.922 223.881 531.283 228.085 528.109 231.077L528.795 231.805L529.481 232.532C533.143 229.079 534.922 224.298 534.922 218.328H533.922ZM528.795 231.805L528.109 231.077C524.896 234.106 520.853 235.639 515.904 235.639V236.639V237.639C521.307 237.639 525.858 235.948 529.481 232.532L528.795 231.805ZM515.904 236.639V235.639C511.351 235.639 507.654 234.207 504.735 231.379L504.039 232.098L503.343 232.816C506.674 236.043 510.888 237.639 515.904 237.639V236.639ZM504.039 232.098L504.757 231.402C501.924 228.478 500.339 224.617 500.057 219.735L499.059 219.793L498.06 219.851C498.365 225.125 500.099 229.468 503.321 232.793L504.039 232.098ZM499.059 219.793L498.665 218.874C494.355 220.721 489.547 224.764 484.242 230.855L484.996 231.512L485.75 232.169C490.992 226.151 495.559 222.381 499.453 220.712L499.059 219.793ZM484.996 231.512L484.236 230.862C478.982 237.008 475.707 243.166 474.493 249.336L475.475 249.529L476.456 249.722C477.586 243.979 480.658 238.125 485.756 232.161L484.996 231.512ZM475.475 249.529H474.475C474.475 271.319 474.865 292.132 475.647 311.971L476.646 311.932L477.646 311.892C476.865 292.082 476.475 271.295 476.475 249.529H475.475ZM476.646 311.932L475.647 311.97C475.754 314.753 476.78 317.181 478.704 319.211L479.43 318.523L480.156 317.836C478.564 316.155 477.734 314.188 477.646 311.893L476.646 311.932ZM479.43 318.523L478.723 319.231C480.641 321.149 483.403 322.582 486.919 323.587L487.193 322.625L487.468 321.663C484.147 320.715 481.734 319.413 480.137 317.816L479.43 318.523ZM487.193 322.625L486.919 323.587C490.347 324.566 493.202 325.305 495.477 325.799L495.689 324.822L495.902 323.845C493.685 323.363 490.875 322.637 487.468 321.663L487.193 322.625ZM495.689 324.822L495.518 325.807C497.794 326.203 500.747 326.597 504.371 326.988L504.479 325.994L504.586 325C500.983 324.61 498.077 324.223 495.861 323.837L495.689 324.822ZM504.479 325.994L503.584 326.441C504.103 327.479 504.357 328.547 504.357 329.656H505.357H506.357C506.357 328.226 506.026 326.853 505.373 325.547L504.479 325.994ZM505.357 329.656H504.357C504.357 330.434 504.123 331.353 503.584 332.432L504.479 332.879L505.373 333.326C506.006 332.061 506.357 330.832 506.357 329.656H505.357ZM504.479 332.879L504.518 331.88C489.857 331.293 475.342 331 460.973 331V332V333C475.315 333 489.803 333.293 504.439 333.878L504.479 332.879ZM460.973 332V331C449.042 331 436.625 331.293 423.72 331.88L423.766 332.879L423.811 333.878C436.688 333.293 449.075 333 460.973 333V332ZM423.766 332.879L424.736 332.636C424.342 331.061 424.18 330.101 424.18 329.656H423.18H422.18C422.18 330.383 422.408 331.572 422.795 333.121L423.766 332.879ZM423.18 329.656H424.18C424.18 329.501 424.215 329.146 424.314 328.533C424.408 327.94 424.552 327.161 424.746 326.19L423.766 325.994L422.785 325.798C422.589 326.781 422.439 327.588 422.339 328.217C422.242 328.824 422.18 329.323 422.18 329.656H423.18ZM423.766 325.994L423.886 326.987C427.12 326.595 429.781 326.201 431.863 325.805L431.676 324.822L431.489 323.84C429.469 324.225 426.856 324.612 423.645 325.001L423.766 325.994ZM431.676 324.822L431.907 325.795C433.993 325.299 436.559 324.558 439.6 323.577L439.293 322.625L438.986 321.673C435.972 322.645 433.46 323.369 431.444 323.849L431.676 324.822ZM439.293 322.625L439.6 323.577C442.739 322.564 445.209 321.118 446.925 319.188L446.178 318.523L445.43 317.859C444.021 319.445 441.901 320.733 438.986 321.673L439.293 322.625ZM446.178 318.523L446.943 319.168C448.656 317.133 449.561 314.72 449.667 311.97L448.668 311.932L447.669 311.893C447.579 314.221 446.825 316.203 445.413 317.879L446.178 318.523ZM448.668 311.932L449.667 311.972C450.059 302.286 450.254 290.553 450.254 276.775H449.254H448.254C448.254 290.537 448.059 302.241 447.669 311.891L448.668 311.932ZM449.254 276.775H450.254C450.254 272.181 450.205 264.364 450.107 253.329L449.107 253.338L448.107 253.347C448.205 264.382 448.254 272.19 448.254 276.775H449.254ZM449.107 253.338L450.107 253.329C450.01 242.296 449.961 232.631 449.961 224.334H448.961H447.961C447.961 232.638 448.01 242.31 448.107 253.347L449.107 253.338ZM448.961 224.334L449.484 223.482C443.688 219.923 434.093 217.916 420.88 217.329L420.836 218.328L420.792 219.327C433.946 219.912 443.101 221.909 448.438 225.186L448.961 224.334ZM420.836 218.328L421.806 218.086C421.422 216.548 421.25 215.422 421.25 214.666H420.25H419.25C419.25 215.668 419.469 216.983 419.866 218.571L420.836 218.328ZM420.25 214.666H421.25C421.25 214.221 421.412 213.261 421.806 211.686L420.836 211.443L419.866 211.201C419.478 212.751 419.25 213.939 419.25 214.666H420.25ZM595.006 294.207L595.17 293.221L594.793 293.158L594.471 293.362L595.006 294.207ZM594.42 317.645L594.069 318.581L594.079 318.585L594.089 318.588L594.42 317.645ZM684.361 373.602L683.482 373.125L683.477 373.135L684.361 373.602ZM668.98 393.23L668.301 392.497L668.296 392.502L668.29 392.507L668.98 393.23ZM644.518 408.465L644.141 407.538L644.138 407.54L644.518 408.465ZM574.791 404.949L575.377 404.139L575.371 404.134L574.791 404.949ZM568.785 361.883L567.984 361.285L567.978 361.292L568.785 361.883ZM590.465 344.305L590.941 345.184L593.596 343.748L590.608 343.315L590.465 344.305ZM568.492 306.365L567.729 305.719L567.728 305.721L568.492 306.365ZM585.924 290.545L586.522 291.346L587.757 290.424L586.412 289.672L585.924 290.545ZM563.512 229.754L562.608 229.325L562.605 229.332L563.512 229.754ZM574.498 214.373L575.198 215.088L575.205 215.08L574.498 214.373ZM591.344 203.24L591.736 204.16L591.742 204.157L591.344 203.24ZM629.43 200.457L629.192 201.428L629.202 201.431L629.213 201.433L629.43 200.457ZM664.293 212.029L664.016 212.99L665.137 213.313L665.285 212.156L664.293 212.029ZM668.834 202.361L669.554 203.055L669.561 203.048L669.567 203.042L668.834 202.361ZM688.316 202.801L687.586 203.484L687.592 203.49L687.598 203.496L688.316 202.801ZM688.902 223.602L688.147 222.947L688.145 222.949L688.902 223.602ZM667.223 224.334L666.682 225.175L666.716 225.197L666.752 225.216L667.223 224.334ZM661.07 220.232L660.489 221.046L660.499 221.053L660.509 221.06L661.07 220.232ZM654.625 215.838L655.155 214.99L654.4 214.518L653.844 215.213L654.625 215.838ZM654.039 216.57L653.258 215.946L652.666 216.686L653.373 217.317L654.039 216.57ZM662.242 229.021L661.303 229.365L661.307 229.376L661.311 229.387L662.242 229.021ZM606.725 399.383L607.093 398.453L607.082 398.449L606.725 399.383ZM644.371 398.357L644.007 397.426L643.998 397.429L643.99 397.433L644.371 398.357ZM665.758 378.289L664.848 377.873L664.844 377.883L665.758 378.289ZM667.076 358.953L668.046 358.711L668.044 358.702L667.076 358.953ZM663.121 351.189L662.325 351.795L662.328 351.799L663.121 351.189ZM603.062 344.891V343.891H602.749L602.491 344.07L603.062 344.891ZM633.092 226.678L632.136 226.972L632.138 226.977L633.092 226.678ZM626.939 215.398L626.219 216.092L626.232 216.106L626.246 216.119L626.939 215.398ZM619.469 209.979L619.066 210.894L619.073 210.897L619.079 210.899L619.469 209.979ZM665.172 244.695H664.172C664.172 259.888 659.279 271.962 649.549 281.024L650.23 281.756L650.912 282.488C661.104 272.995 666.172 260.362 666.172 244.695H665.172ZM650.23 281.756L649.549 281.024C639.783 290.12 627.92 294.672 613.902 294.672V295.672V296.672C628.4 296.672 640.757 291.946 650.912 282.488L650.23 281.756ZM613.902 295.672V294.672C607.212 294.672 600.969 294.187 595.17 293.221L595.006 294.207L594.841 295.193C600.762 296.18 607.116 296.672 613.902 296.672V295.672ZM595.006 294.207L594.471 293.362C588.41 297.201 585.217 302.072 585.217 307.977H586.217H587.217C587.217 302.943 589.883 298.635 595.541 295.052L595.006 294.207ZM586.217 307.977H585.217C585.217 310.401 585.978 312.537 587.505 314.336C589.017 316.118 591.233 317.517 594.069 318.581L594.42 317.645L594.771 316.708C592.138 315.721 590.253 314.484 589.03 313.042C587.823 311.62 587.217 309.947 587.217 307.977H586.217ZM594.42 317.645L594.089 318.588C599.829 320.602 609.453 321.574 622.838 321.574V320.574V319.574C609.465 319.574 600.143 318.593 594.751 316.701L594.42 317.645ZM622.838 320.574V321.574C625.005 321.574 629.074 321.476 635.029 321.281L634.996 320.281L634.963 319.282C629.005 319.477 624.968 319.574 622.838 319.574V320.574ZM634.996 320.281L635.029 321.281C640.981 321.086 645.705 320.988 649.205 320.988V319.988V318.988C645.674 318.988 640.925 319.086 634.963 319.282L634.996 320.281ZM649.205 319.988V320.988C662.717 320.988 672.665 323.765 679.222 329.147C685.743 334.499 689.074 342.564 689.074 353.533H690.074H691.074C691.074 342.14 687.594 333.432 680.491 327.602C673.426 321.803 662.94 318.988 649.205 318.988V319.988ZM690.074 353.533H689.074C689.074 359.677 687.232 366.203 683.482 373.125L684.361 373.602L685.241 374.078C689.108 366.938 691.074 360.085 691.074 353.533H690.074ZM684.361 373.602L683.477 373.135C679.825 380.055 674.771 386.509 668.301 392.497L668.98 393.23L669.66 393.964C676.276 387.842 681.476 381.211 685.246 374.068L684.361 373.602ZM668.98 393.23L668.29 392.507C661.952 398.557 653.91 403.573 644.141 407.538L644.518 408.465L644.894 409.391C654.851 405.349 663.119 400.208 669.671 393.954L668.98 393.23ZM644.518 408.465L644.138 407.54C634.496 411.493 624.323 413.471 613.609 413.471V414.471V415.471C624.576 415.471 635.008 413.445 644.897 409.39L644.518 408.465ZM613.609 414.471V413.471C596.617 413.471 583.922 410.311 575.376 404.139L574.791 404.949L574.206 405.76C583.238 412.283 596.422 415.471 613.609 415.471V414.471ZM574.791 404.949L575.371 404.134C566.8 398.039 562.607 390.511 562.607 381.512H561.607H560.607C560.607 391.263 565.204 399.359 574.211 405.764L574.791 404.949ZM561.607 381.512H562.607C562.607 375.227 564.902 368.886 569.592 362.473L568.785 361.883L567.978 361.292C563.098 367.965 560.607 374.71 560.607 381.512H561.607ZM568.785 361.883L569.587 362.481C574.359 356.086 581.458 350.313 590.941 345.184L590.465 344.305L589.989 343.425C580.332 348.648 572.977 354.593 567.984 361.285L568.785 361.883ZM590.465 344.305L590.608 343.315C581.264 341.959 574.392 339.482 569.875 335.971C565.406 332.498 563.193 327.98 563.193 322.332H562.193H561.193C561.193 328.598 563.692 333.699 568.648 337.55C573.555 341.364 580.818 343.916 590.321 345.294L590.465 344.305ZM562.193 322.332H563.193C563.193 316.939 565.185 311.839 569.257 307.01L568.492 306.365L567.728 305.721C563.401 310.853 561.193 316.397 561.193 322.332H562.193ZM568.492 306.365L569.256 307.011C573.489 302.008 579.238 296.785 586.522 291.346L585.924 290.545L585.326 289.744C577.961 295.242 572.089 300.566 567.729 305.719L568.492 306.365ZM585.924 290.545L586.412 289.672C576.555 284.164 569.843 277.889 566.154 270.889L565.27 271.355L564.385 271.822C568.313 279.275 575.371 285.793 585.436 291.418L585.924 290.545ZM565.27 271.355L566.154 270.889C562.43 263.823 560.557 255.784 560.557 246.746H559.557H558.557C558.557 256.068 560.492 264.434 564.385 271.822L565.27 271.355ZM559.557 246.746H560.557C560.557 241.242 561.837 235.722 564.418 230.176L563.512 229.754L562.605 229.332C559.913 235.114 558.557 240.922 558.557 246.746H559.557ZM563.512 229.754L564.415 230.183C567.099 224.528 570.691 219.498 575.198 215.088L574.498 214.373L573.799 213.658C569.125 218.233 565.394 223.456 562.608 229.325L563.512 229.754ZM574.498 214.373L575.205 215.08C579.695 210.59 585.2 206.948 591.736 204.16L591.344 203.24L590.951 202.32C584.206 205.197 578.481 208.976 573.791 213.666L574.498 214.373ZM591.344 203.24L591.742 204.157C598.354 201.283 605.298 199.846 612.584 199.846V198.846V197.846C605.026 197.846 597.81 199.338 590.945 202.323L591.344 203.24ZM612.584 198.846V199.846C619.376 199.846 624.904 200.38 629.192 201.428L629.43 200.457L629.667 199.486C625.166 198.385 619.464 197.846 612.584 197.846V198.846ZM629.43 200.457L629.213 201.433C633.539 202.395 638.955 204.133 645.474 206.663L645.836 205.73L646.198 204.798C639.631 202.25 634.11 200.473 629.647 199.481L629.43 200.457ZM645.836 205.73L645.474 206.663C652.04 209.211 658.221 211.321 664.016 212.99L664.293 212.029L664.57 211.068C658.841 209.418 652.717 207.328 646.198 204.798L645.836 205.73ZM664.293 212.029L665.285 212.156C665.747 208.55 667.172 205.529 669.554 203.055L668.834 202.361L668.114 201.668C665.418 204.467 663.815 207.892 663.301 211.902L664.293 212.029ZM668.834 202.361L669.567 203.042C671.902 200.527 674.9 199.26 678.648 199.26V198.26V197.26C674.389 197.26 670.844 198.727 668.101 201.681L668.834 202.361ZM678.648 198.26V199.26C681.943 199.26 684.913 200.626 687.586 203.484L688.316 202.801L689.047 202.118C686.056 198.921 682.58 197.26 678.648 197.26V198.26ZM688.316 202.801L687.598 203.496C690.363 206.353 691.711 209.576 691.711 213.201H692.711H693.711C693.711 209.014 692.13 205.303 689.035 202.105L688.316 202.801ZM692.711 213.201H691.711C691.711 216.973 690.523 220.205 688.147 222.947L688.902 223.602L689.658 224.257C692.36 221.139 693.711 217.437 693.711 213.201H692.711ZM688.902 223.602L688.145 222.949C685.898 225.556 683.051 226.85 679.527 226.85V227.85V228.85C683.621 228.85 687.024 227.312 689.66 224.255L688.902 223.602ZM679.527 227.85V226.85C677.4 226.85 675.264 226.48 673.118 225.733L672.789 226.678L672.461 227.622C674.806 228.438 677.163 228.85 679.527 228.85V227.85ZM672.789 226.678L673.118 225.733C670.901 224.962 669.098 224.201 667.693 223.452L667.223 224.334L666.752 225.216C668.277 226.03 670.185 226.831 672.461 227.622L672.789 226.678ZM667.223 224.334L667.763 223.493C666.407 222.621 664.365 221.259 661.632 219.405L661.07 220.232L660.509 221.06C663.245 222.916 665.304 224.289 666.682 225.175L667.223 224.334ZM661.07 220.232L661.652 219.419C658.912 217.462 656.744 215.983 655.155 214.99L654.625 215.838L654.095 216.686C655.631 217.646 657.76 219.097 660.489 221.046L661.07 220.232ZM654.625 215.838L653.844 215.213L653.258 215.946L654.039 216.57L654.82 217.195L655.406 216.463L654.625 215.838ZM654.039 216.57L653.373 217.317C656.85 220.417 659.497 224.423 661.303 229.365L662.242 229.021L663.181 228.678C661.276 223.464 658.455 219.169 654.705 215.824L654.039 216.57ZM662.242 229.021L661.311 229.387C663.218 234.248 664.172 239.349 664.172 244.695H665.172H666.172C666.172 239.104 665.173 233.756 663.173 228.656L662.242 229.021ZM588.707 370.965H587.707C587.707 374.973 588.309 378.791 589.516 382.414L590.465 382.098L591.414 381.781C590.277 378.373 589.707 374.769 589.707 370.965H588.707ZM590.465 382.098L589.516 382.414C590.729 386.053 592.647 389.479 595.255 392.689L596.031 392.059L596.807 391.428C594.338 388.388 592.544 385.173 591.414 381.781L590.465 382.098ZM596.031 392.059L595.255 392.689C597.927 395.977 601.649 398.51 606.367 400.317L606.725 399.383L607.082 398.449C602.62 396.74 599.214 394.39 596.807 391.428L596.031 392.059ZM606.725 399.383L606.357 400.313C611.186 402.224 616.784 403.166 623.131 403.166V402.166V401.166C616.978 401.166 611.639 400.252 607.093 398.453L606.725 399.383ZM623.131 402.166V403.166C631.244 403.166 638.457 401.88 644.753 399.282L644.371 398.357L643.99 397.433C637.98 399.913 631.034 401.166 623.131 401.166V402.166ZM644.371 398.357L644.735 399.289C651.083 396.809 655.975 393.654 659.335 389.785L658.58 389.129L657.825 388.473C654.74 392.026 650.159 395.023 644.007 397.426L644.371 398.357ZM658.58 389.129L659.335 389.785C662.606 386.018 665.06 382.323 666.672 378.695L665.758 378.289L664.844 377.883C663.331 381.287 661 384.817 657.825 388.473L658.58 389.129ZM665.758 378.289L666.667 378.705C668.271 375.197 669.102 371.928 669.102 368.914H668.102H667.102C667.102 371.564 666.37 374.545 664.848 377.873L665.758 378.289ZM668.102 368.914H669.102C669.102 364.955 668.756 361.548 668.046 358.711L667.076 358.953L666.106 359.196C666.764 361.827 667.102 365.061 667.102 368.914H668.102ZM667.076 358.953L668.044 358.702C667.321 355.914 665.935 353.207 663.914 350.58L663.121 351.189L662.328 351.799C664.214 354.25 665.464 356.718 666.108 359.204L667.076 358.953ZM663.121 351.189L663.917 350.584C661.898 347.928 658.764 345.979 654.634 344.67L654.332 345.623L654.03 346.576C657.908 347.806 660.633 349.568 662.325 351.795L663.121 351.189ZM654.332 345.623L654.634 344.67C650.499 343.359 645.31 342.719 639.098 342.719V343.719V344.719C645.19 344.719 650.158 345.349 654.03 346.576L654.332 345.623ZM639.098 343.719V342.719C635.753 342.719 629.531 342.915 620.451 343.306L620.494 344.305L620.537 345.304C629.621 344.913 635.802 344.719 639.098 344.719V343.719ZM620.494 344.305L620.451 343.306C611.363 343.697 605.576 343.891 603.062 343.891V344.891V345.891C605.628 345.891 611.461 345.694 620.537 345.304L620.494 344.305ZM603.062 344.891L602.491 344.07C597.879 347.278 594.257 351.249 591.641 355.979L592.516 356.463L593.391 356.947C595.852 352.497 599.262 348.753 603.634 345.712L603.062 344.891ZM592.516 356.463L591.641 355.979C589.022 360.712 587.707 365.712 587.707 370.965H588.707H589.707C589.707 366.062 590.931 361.394 593.391 356.947L592.516 356.463ZM589.293 247.039H588.293C588.293 260.143 590.238 270.136 594.257 276.884C598.324 283.714 604.478 287.15 612.584 287.15V286.15V285.15C605.163 285.15 599.671 282.068 595.975 275.861C592.23 269.572 590.293 260.01 590.293 247.039H589.293ZM612.584 286.15V287.15C620.362 287.15 626.347 283.739 630.431 277.001L629.576 276.482L628.721 275.964C624.993 282.116 619.65 285.15 612.584 285.15V286.15ZM629.576 276.482L630.431 277.001C634.487 270.308 636.436 259.379 636.436 244.402H635.436H634.436C634.436 259.309 632.478 269.766 628.721 275.964L629.576 276.482ZM635.436 244.402H636.436C636.436 237.494 635.647 231.48 634.046 226.378L633.092 226.678L632.138 226.977C633.662 231.836 634.436 237.638 634.436 244.402H635.436ZM633.092 226.678L634.048 226.384C632.459 221.219 630.341 217.282 627.633 214.678L626.939 215.398L626.246 216.119C628.616 218.398 630.6 221.98 632.136 226.972L633.092 226.678ZM626.939 215.398L627.66 214.705C625.15 212.095 622.552 210.197 619.858 209.058L619.469 209.979L619.079 210.899C621.464 211.909 623.846 213.624 626.219 216.092L626.939 215.398ZM619.469 209.979L619.871 209.063C617.31 207.936 614.683 207.367 611.998 207.367V208.367V209.367C614.391 209.367 616.745 209.873 619.066 210.894L619.469 209.979ZM611.998 208.367V207.367C605.077 207.367 599.371 210.648 594.918 217.023L595.738 217.596L596.558 218.168C600.7 212.238 605.834 209.367 611.998 209.367V208.367ZM595.738 217.596L594.918 217.023C590.443 223.431 588.293 233.5 588.293 247.039H589.293H590.293C590.293 233.625 592.44 224.065 596.558 218.168L595.738 217.596ZM821.91 254.363V255.363H822.64L822.862 254.669L821.91 254.363ZM742.076 254.363V253.363H741.141L741.078 254.297L742.076 254.363ZM741.49 269.891H740.49V269.901L740.49 269.911L741.49 269.891ZM754.234 304.9L753.503 305.583L753.507 305.587L754.234 304.9ZM797.594 316.766L797.829 317.737L797.843 317.734L797.857 317.73L797.594 316.766ZM805.504 313.836L805.057 312.941L805.048 312.946L805.04 312.95L805.504 313.836ZM816.93 304.314L816.166 303.668L816.161 303.674L816.93 304.314ZM821.178 298.748L821.989 299.332L821.995 299.325L822 299.317L821.178 298.748ZM824.693 293.914L824.897 292.935L824.319 292.815L823.934 293.263L824.693 293.914ZM830.406 297.137L831.343 297.486L831.553 296.925L831.156 296.475L830.406 297.137ZM807.701 326.58L808.233 327.427L808.239 327.423L807.701 326.58ZM756.871 333.904L757.137 332.94L757.126 332.937L756.871 333.904ZM726.842 313.982L726.049 314.592L726.055 314.6L726.842 313.982ZM717.467 295.086L716.511 295.38L716.512 295.384L717.467 295.086ZM800.377 202.361L800.011 203.292L800.02 203.295L800.029 203.299L800.377 202.361ZM814.439 211.59L813.677 212.237L813.682 212.243L813.687 212.248L814.439 211.59ZM821.91 224.48L820.961 224.797L820.965 224.809L820.97 224.821L821.91 224.48ZM756.578 217.303L755.877 216.59L755.871 216.596L756.578 217.303ZM743.688 244.402L742.71 244.19L742.446 245.402H743.688V244.402ZM796.422 244.402V245.402H797.193L797.389 244.657L796.422 244.402ZM821.91 254.363V253.363H742.076V254.363V255.363H821.91V254.363ZM742.076 254.363L741.078 254.297C740.687 260.172 740.49 265.371 740.49 269.891H741.49H742.49C742.49 265.426 742.684 260.273 743.074 254.43L742.076 254.363ZM741.49 269.891L740.49 269.911C740.787 284.653 745.098 296.577 753.503 305.583L754.234 304.9L754.965 304.218C746.964 295.645 742.779 284.229 742.49 269.87L741.49 269.891ZM754.234 304.9L753.507 305.587C761.928 314.509 773.194 318.938 787.193 318.938V317.938V316.938C773.653 316.938 762.947 312.674 754.962 304.214L754.234 304.9ZM787.193 317.938V318.938C790.974 318.938 794.521 318.539 797.829 317.737L797.594 316.766L797.358 315.794C794.221 316.554 790.834 316.938 787.193 316.938V317.938ZM797.594 316.766L797.857 317.73C801.121 316.84 803.832 315.841 805.968 314.722L805.504 313.836L805.04 312.95C803.074 313.98 800.511 314.933 797.331 315.801L797.594 316.766ZM805.504 313.836L805.951 314.73C808.201 313.606 810.473 311.984 812.77 309.887L812.096 309.148L811.421 308.41C809.226 310.414 807.104 311.918 805.057 312.941L805.504 313.836ZM812.096 309.148L812.77 309.887C815.024 307.829 816.676 306.181 817.698 304.955L816.93 304.314L816.161 303.674C815.23 304.792 813.66 306.366 811.421 308.41L812.096 309.148ZM816.93 304.314L817.693 304.96C818.792 303.661 820.226 301.781 821.989 299.332L821.178 298.748L820.366 298.164C818.614 300.598 817.215 302.429 816.166 303.669L816.93 304.314ZM821.178 298.748L822 299.317C823.766 296.767 824.907 295.202 825.453 294.565L824.693 293.914L823.934 293.263C823.308 293.994 822.106 295.651 820.356 298.179L821.178 298.748ZM824.693 293.914L824.489 294.893C826.64 295.341 828.346 296.314 829.656 297.798L830.406 297.137L831.156 296.475C829.536 294.64 827.434 293.464 824.897 292.935L824.693 293.914ZM830.406 297.137L829.469 296.787C824.651 309.701 817.208 319.328 807.163 325.737L807.701 326.58L808.239 327.423C818.702 320.746 826.396 310.744 831.343 297.486L830.406 297.137ZM807.701 326.58L807.169 325.733C797.073 332.079 786.125 335.248 774.303 335.248V336.248V337.248C786.504 337.248 797.821 333.971 808.233 327.427L807.701 326.58ZM774.303 336.248V335.248C768.434 335.248 762.713 334.479 757.137 332.94L756.871 333.904L756.605 334.868C762.357 336.455 768.257 337.248 774.303 337.248V336.248ZM756.871 333.904L757.126 332.937C751.671 331.502 746.348 329.106 741.155 325.741L740.611 326.58L740.067 327.419C745.422 330.89 750.939 333.377 756.617 334.871L756.871 333.904ZM740.611 326.58L741.155 325.741C735.975 322.383 731.467 318.259 727.629 313.365L726.842 313.982L726.055 314.6C730.029 319.666 734.701 323.941 740.067 327.419L740.611 326.58ZM726.842 313.982L727.634 313.373C723.815 308.407 720.738 302.22 718.422 294.788L717.467 295.086L716.512 295.384C718.883 302.991 722.056 309.402 726.049 314.592L726.842 313.982ZM717.467 295.086L718.423 294.792C716.112 287.283 714.951 278.985 714.951 269.891H713.951H712.951C712.951 279.155 714.134 287.654 716.511 295.38L717.467 295.086ZM713.951 269.891H714.951C714.951 249.507 721.174 232.77 733.576 219.6L732.848 218.914L732.12 218.229C719.326 231.816 712.951 249.064 712.951 269.891H713.951ZM732.848 218.914L733.576 219.6C745.985 206.421 761.2 199.846 779.283 199.846V198.846V197.846C760.648 197.846 744.906 204.649 732.12 218.229L732.848 218.914ZM779.283 198.846V199.846C787.295 199.846 794.197 201.004 800.011 203.292L800.377 202.361L800.743 201.431C794.643 199.031 787.482 197.846 779.283 197.846V198.846ZM800.377 202.361L800.029 203.299C805.964 205.501 810.493 208.491 813.677 212.237L814.439 211.59L815.201 210.942C811.745 206.876 806.899 203.714 800.725 201.424L800.377 202.361ZM814.439 211.59L813.687 212.248C817.022 216.06 819.443 220.241 820.961 224.797L821.91 224.48L822.859 224.164C821.252 219.344 818.693 214.932 815.192 210.931L814.439 211.59ZM821.91 224.48L820.97 224.821C822.587 229.293 823.4 234.109 823.4 239.275H824.4H825.4C825.4 233.895 824.553 228.848 822.851 224.14L821.91 224.48ZM824.4 239.275H823.4C823.4 244.044 822.59 248.97 820.958 254.058L821.91 254.363L822.862 254.669C824.551 249.405 825.4 244.273 825.4 239.275H824.4ZM775.768 208.367V207.367C768.703 207.367 762.067 210.499 755.877 216.59L756.578 217.303L757.279 218.016C763.198 212.192 769.356 209.367 775.768 209.367V208.367ZM756.578 217.303L755.871 216.596C749.729 222.738 745.37 231.976 742.71 244.19L743.688 244.402L744.665 244.615C747.279 232.61 751.513 223.782 757.285 218.01L756.578 217.303ZM743.688 244.402V245.402H796.422V244.402V243.402H743.688V244.402ZM796.422 244.402L797.389 244.657C798.379 240.893 798.887 237.581 798.887 234.734H797.887H796.887C796.887 237.356 796.418 240.489 795.455 244.148L796.422 244.402ZM797.887 234.734H798.887C798.887 226.963 797.092 220.448 793.43 215.261L792.613 215.838L791.796 216.415C795.166 221.188 796.887 227.272 796.887 234.734H797.887ZM792.613 215.838L793.43 215.261C789.678 209.945 783.711 207.367 775.768 207.367V208.367V209.367C783.254 209.367 788.517 211.77 791.796 216.415L792.613 215.838ZM888.572 285.846V284.846H887.572V285.846H888.572ZM911.649 285.846H912.649V284.846H911.649V285.846ZM911.649 308.923V309.923H912.649V308.923H911.649ZM888.572 308.923H887.572V309.923H888.572V308.923ZM888.572 262.769V261.769H887.572V262.769H888.572ZM911.649 262.769H912.649V261.769H911.649V262.769ZM911.649 285.846V286.846H912.649V285.846H911.649ZM888.572 285.846H887.572V286.846H888.572V285.846ZM888.572 239.692V238.692H887.572V239.692H888.572ZM911.649 239.692H912.649V238.692H911.649V239.692ZM911.649 262.769V263.769H912.649V262.769H911.649ZM888.572 262.769H887.572V263.769H888.572V262.769ZM888.572 216.615V215.615H887.572V216.615H888.572ZM911.649 216.615H912.649V215.615H911.649V216.615ZM911.649 239.692V240.692H912.649V239.692H911.649ZM888.572 239.692H887.572V240.692H888.572V239.692ZM888.572 193.538V192.538H887.572V193.538H888.572ZM911.649 193.538H912.649V192.538H911.649V193.538ZM911.649 216.615V217.615H912.649V216.615H911.649ZM888.572 216.615H887.572V217.615H888.572V216.615ZM888.572 170.462V169.462H887.572V170.462H888.572ZM911.649 170.462H912.649V169.462H911.649V170.462ZM911.649 193.538V194.538H912.649V193.538H911.649ZM888.572 193.538H887.572V194.538H888.572V193.538ZM865.495 193.538V192.538H864.495V193.538H865.495ZM888.572 193.538H889.572V192.538H888.572V193.538ZM888.572 216.615V217.615H889.572V216.615H888.572ZM865.495 216.615H864.495V217.615H865.495V216.615ZM911.649 193.538V192.538H910.649V193.538H911.649ZM934.726 193.538H935.726V192.538H934.726V193.538ZM934.726 216.615V217.615H935.726V216.615H934.726ZM911.649 216.615H910.649V217.615H911.649V216.615ZM888.572 147.385V146.385H887.572V147.385H888.572ZM911.649 147.385H912.649V146.385H911.649V147.385ZM911.649 170.462V171.462H912.649V170.462H911.649ZM888.572 170.462H887.572V171.462H888.572V170.462ZM911.649 124.308V123.308H910.649V124.308H911.649ZM934.726 124.308H935.726V123.308H934.726V124.308ZM934.726 147.385V148.385H935.726V147.385H934.726ZM911.649 147.385H910.649V148.385H911.649V147.385ZM934.726 147.385V146.385H933.726V147.385H934.726ZM957.803 147.385H958.803V146.385H957.803V147.385ZM957.803 170.462V171.462H958.803V170.462H957.803ZM934.726 170.462H933.726V171.462H934.726V170.462ZM888.572 308.923V307.923H887.572V308.923H888.572ZM911.649 308.923H912.649V307.923H911.649V308.923ZM911.649 332V333H912.649V332H911.649ZM888.572 332H887.572V333H888.572V332ZM865.495 332V331H864.495V332H865.495ZM888.572 332H889.572V331H888.572V332ZM888.572 355.077V356.077H889.572V355.077H888.572ZM865.495 355.077H864.495V356.077H865.495V355.077ZM934.726 193.538V192.538H933.726V193.538H934.726ZM957.803 193.538H958.803V192.538H957.803V193.538ZM957.803 216.615V217.615H958.803V216.615H957.803ZM934.726 216.615H933.726V217.615H934.726V216.615ZM888.572 285.846V286.846H911.649V285.846V284.846H888.572V285.846ZM911.649 285.846H910.649V308.923H911.649H912.649V285.846H911.649ZM911.649 308.923V307.923H888.572V308.923V309.923H911.649V308.923ZM888.572 308.923H889.572V285.846H888.572H887.572V308.923H888.572ZM888.572 262.769V263.769H911.649V262.769V261.769H888.572V262.769ZM911.649 262.769H910.649V285.846H911.649H912.649V262.769H911.649ZM911.649 285.846V284.846H888.572V285.846V286.846H911.649V285.846ZM888.572 285.846H889.572V262.769H888.572H887.572V285.846H888.572ZM888.572 239.692V240.692H911.649V239.692V238.692H888.572V239.692ZM911.649 239.692H910.649V262.769H911.649H912.649V239.692H911.649ZM911.649 262.769V261.769H888.572V262.769V263.769H911.649V262.769ZM888.572 262.769H889.572V239.692H888.572H887.572V262.769H888.572ZM888.572 216.615V217.615H911.649V216.615V215.615H888.572V216.615ZM911.649 216.615H910.649V239.692H911.649H912.649V216.615H911.649ZM911.649 239.692V238.692H888.572V239.692V240.692H911.649V239.692ZM888.572 239.692H889.572V216.615H888.572H887.572V239.692H888.572ZM888.572 193.538V194.538H911.649V193.538V192.538H888.572V193.538ZM911.649 193.538H910.649V216.615H911.649H912.649V193.538H911.649ZM911.649 216.615V215.615H888.572V216.615V217.615H911.649V216.615ZM888.572 216.615H889.572V193.538H888.572H887.572V216.615H888.572ZM888.572 170.462V171.462H911.649V170.462V169.462H888.572V170.462ZM911.649 170.462H910.649V193.538H911.649H912.649V170.462H911.649ZM911.649 193.538V192.538H888.572V193.538V194.538H911.649V193.538ZM888.572 193.538H889.572V170.462H888.572H887.572V193.538H888.572ZM865.495 193.538V194.538H888.572V193.538V192.538H865.495V193.538ZM888.572 193.538H887.572V216.615H888.572H889.572V193.538H888.572ZM888.572 216.615V215.615H865.495V216.615V217.615H888.572V216.615ZM865.495 216.615H866.495V193.538H865.495H864.495V216.615H865.495ZM911.649 193.538V194.538H934.726V193.538V192.538H911.649V193.538ZM934.726 193.538H933.726V216.615H934.726H935.726V193.538H934.726ZM934.726 216.615V215.615H911.649V216.615V217.615H934.726V216.615ZM911.649 216.615H912.649V193.538H911.649H910.649V216.615H911.649ZM888.572 147.385V148.385H911.649V147.385V146.385H888.572V147.385ZM911.649 147.385H910.649V170.462H911.649H912.649V147.385H911.649ZM911.649 170.462V169.462H888.572V170.462V171.462H911.649V170.462ZM888.572 170.462H889.572V147.385H888.572H887.572V170.462H888.572ZM911.649 124.308V125.308H934.726V124.308V123.308H911.649V124.308ZM934.726 124.308H933.726V147.385H934.726H935.726V124.308H934.726ZM934.726 147.385V146.385H911.649V147.385V148.385H934.726V147.385ZM911.649 147.385H912.649V124.308H911.649H910.649V147.385H911.649ZM934.726 147.385V148.385H957.803V147.385V146.385H934.726V147.385ZM957.803 147.385H956.803V170.462H957.803H958.803V147.385H957.803ZM957.803 170.462V169.462H934.726V170.462V171.462H957.803V170.462ZM934.726 170.462H935.726V147.385H934.726H933.726V170.462H934.726ZM888.572 308.923V309.923H911.649V308.923V307.923H888.572V308.923ZM911.649 308.923H910.649V332H911.649H912.649V308.923H911.649ZM911.649 332V331H888.572V332V333H911.649V332ZM888.572 332H889.572V308.923H888.572H887.572V332H888.572ZM865.495 332V333H888.572V332V331H865.495V332ZM888.572 332H887.572V355.077H888.572H889.572V332H888.572ZM888.572 355.077V354.077H865.495V355.077V356.077H888.572V355.077ZM865.495 355.077H866.495V332H865.495H864.495V355.077H865.495ZM934.726 193.538V194.538H957.803V193.538V192.538H934.726V193.538ZM957.803 193.538H956.803V216.615H957.803H958.803V193.538H957.803ZM957.803 216.615V215.615H934.726V216.615V217.615H957.803V216.615ZM934.726 216.615H935.726V193.538H934.726H933.726V216.615H934.726ZM980.925 308.923V307.923H979.925V308.923H980.925ZM1004 308.923H1005V307.923H1004V308.923ZM1004 332V333H1005V332H1004ZM980.925 332H979.925V333H980.925V332ZM1027.08 308.923V307.923H1026.08V308.923H1027.08ZM1050.16 308.923H1051.16V307.923H1050.16V308.923ZM1050.16 332V333H1051.16V332H1050.16ZM1027.08 332H1026.08V333H1027.08V332ZM1004 285.846V284.846H1003V285.846H1004ZM1027.08 285.846H1028.08V284.846H1027.08V285.846ZM1027.08 308.923V309.923H1028.08V308.923H1027.08ZM1004 308.923H1003V309.923H1004V308.923ZM1004 262.769V261.769H1003V262.769H1004ZM1027.08 262.769H1028.08V261.769H1027.08V262.769ZM1027.08 285.846V286.846H1028.08V285.846H1027.08ZM1004 285.846H1003V286.846H1004V285.846ZM1004 239.692V238.692H1003V239.692H1004ZM1027.08 239.692H1028.08V238.692H1027.08V239.692ZM1027.08 262.769V263.769H1028.08V262.769H1027.08ZM1004 262.769H1003V263.769H1004V262.769ZM1004 216.615V215.615H1003V216.615H1004ZM1027.08 216.615H1028.08V215.615H1027.08V216.615ZM1027.08 239.692V240.692H1028.08V239.692H1027.08ZM1004 239.692H1003V240.692H1004V239.692ZM1004 193.538V192.538H1003V193.538H1004ZM1027.08 193.538H1028.08V192.538H1027.08V193.538ZM1027.08 216.615V217.615H1028.08V216.615H1027.08ZM1004 216.615H1003V217.615H1004V216.615ZM1004 170.462V169.462H1003V170.462H1004ZM1027.08 170.462H1028.08V169.462H1027.08V170.462ZM1027.08 193.538V194.538H1028.08V193.538H1027.08ZM1004 193.538H1003V194.538H1004V193.538ZM1004 147.385V146.385H1003V147.385H1004ZM1027.08 147.385H1028.08V146.385H1027.08V147.385ZM1027.08 170.462V171.462H1028.08V170.462H1027.08ZM1004 170.462H1003V171.462H1004V170.462ZM1027.08 124.308V123.308H1026.08V124.308H1027.08ZM1050.16 124.308H1051.16V123.308H1050.16V124.308ZM1050.16 147.385V148.385H1051.16V147.385H1050.16ZM1027.08 147.385H1026.08V148.385H1027.08V147.385ZM980.925 308.923V309.923H1004V308.923V307.923H980.925V308.923ZM1004 308.923H1003V332H1004H1005V308.923H1004ZM1004 332V331H980.925V332V333H1004V332ZM980.925 332H981.925V308.923H980.925H979.925V332H980.925ZM1027.08 308.923V309.923H1050.16V308.923V307.923H1027.08V308.923ZM1050.16 308.923H1049.16V332H1050.16H1051.16V308.923H1050.16ZM1050.16 332V331H1027.08V332V333H1050.16V332ZM1027.08 332H1028.08V308.923H1027.08H1026.08V332H1027.08ZM1004 285.846V286.846H1027.08V285.846V284.846H1004V285.846ZM1027.08 285.846H1026.08V308.923H1027.08H1028.08V285.846H1027.08ZM1027.08 308.923V307.923H1004V308.923V309.923H1027.08V308.923ZM1004 308.923H1005V285.846H1004H1003V308.923H1004ZM1004 262.769V263.769H1027.08V262.769V261.769H1004V262.769ZM1027.08 262.769H1026.08V285.846H1027.08H1028.08V262.769H1027.08ZM1027.08 285.846V284.846H1004V285.846V286.846H1027.08V285.846ZM1004 285.846H1005V262.769H1004H1003V285.846H1004ZM1004 239.692V240.692H1027.08V239.692V238.692H1004V239.692ZM1027.08 239.692H1026.08V262.769H1027.08H1028.08V239.692H1027.08ZM1027.08 262.769V261.769H1004V262.769V263.769H1027.08V262.769ZM1004 262.769H1005V239.692H1004H1003V262.769H1004ZM1004 216.615V217.615H1027.08V216.615V215.615H1004V216.615ZM1027.08 216.615H1026.08V239.692H1027.08H1028.08V216.615H1027.08ZM1027.08 239.692V238.692H1004V239.692V240.692H1027.08V239.692ZM1004 239.692H1005V216.615H1004H1003V239.692H1004ZM1004 193.538V194.538H1027.08V193.538V192.538H1004V193.538ZM1027.08 193.538H1026.08V216.615H1027.08H1028.08V193.538H1027.08ZM1027.08 216.615V215.615H1004V216.615V217.615H1027.08V216.615ZM1004 216.615H1005V193.538H1004H1003V216.615H1004ZM1004 170.462V171.462H1027.08V170.462V169.462H1004V170.462ZM1027.08 170.462H1026.08V193.538H1027.08H1028.08V170.462H1027.08ZM1027.08 193.538V192.538H1004V193.538V194.538H1027.08V193.538ZM1004 193.538H1005V170.462H1004H1003V193.538H1004ZM1004 147.385V148.385H1027.08V147.385V146.385H1004V147.385ZM1027.08 147.385H1026.08V170.462H1027.08H1028.08V147.385H1027.08ZM1027.08 170.462V169.462H1004V170.462V171.462H1027.08V170.462ZM1004 170.462H1005V147.385H1004H1003V170.462H1004ZM1027.08 124.308V125.308H1050.16V124.308V123.308H1027.08V124.308ZM1050.16 124.308H1049.16V147.385H1050.16H1051.16V124.308H1050.16ZM1050.16 147.385V146.385H1027.08V147.385V148.385H1050.16V147.385ZM1027.08 147.385H1028.08V124.308H1027.08H1026.08V147.385H1027.08ZM1073.21 308.923V307.923H1072.21V308.923H1073.21ZM1096.29 308.923H1097.29V307.923H1096.29V308.923ZM1096.29 332V333H1097.29V332H1096.29ZM1073.21 332H1072.21V333H1073.21V332ZM1096.29 285.846V284.846H1095.29V285.846H1096.29ZM1119.36 285.846H1120.36V284.846H1119.36V285.846ZM1119.36 308.923V309.923H1120.36V308.923H1119.36ZM1096.29 308.923H1095.29V309.923H1096.29V308.923ZM1096.29 262.769V261.769H1095.29V262.769H1096.29ZM1119.36 262.769H1120.36V261.769H1119.36V262.769ZM1119.36 285.846V286.846H1120.36V285.846H1119.36ZM1096.29 285.846H1095.29V286.846H1096.29V285.846ZM1096.29 239.692V238.692H1095.29V239.692H1096.29ZM1119.36 239.692H1120.36V238.692H1119.36V239.692ZM1119.36 262.769V263.769H1120.36V262.769H1119.36ZM1096.29 262.769H1095.29V263.769H1096.29V262.769ZM1096.29 216.615V215.615H1095.29V216.615H1096.29ZM1119.36 216.615H1120.36V215.615H1119.36V216.615ZM1119.36 239.692V240.692H1120.36V239.692H1119.36ZM1096.29 239.692H1095.29V240.692H1096.29V239.692ZM1119.36 308.923V307.923H1118.36V308.923H1119.36ZM1142.44 308.923H1143.44V307.923H1142.44V308.923ZM1142.44 332V333H1143.44V332H1142.44ZM1119.36 332H1118.36V333H1119.36V332ZM1142.44 308.923V307.923H1141.44V308.923H1142.44ZM1165.52 308.923H1166.52V307.923H1165.52V308.923ZM1165.52 332V333H1166.52V332H1165.52ZM1142.44 332H1141.44V333H1142.44V332ZM1165.52 285.846V284.846H1164.52V285.846H1165.52ZM1188.59 285.846H1189.59V284.846H1188.59V285.846ZM1188.59 308.923V309.923H1189.59V308.923H1188.59ZM1165.52 308.923H1164.52V309.923H1165.52V308.923ZM1165.52 262.769V261.769H1164.52V262.769H1165.52ZM1188.59 262.769H1189.59V261.769H1188.59V262.769ZM1188.59 285.846V286.846H1189.59V285.846H1188.59ZM1165.52 285.846H1164.52V286.846H1165.52V285.846ZM1165.52 239.692V238.692H1164.52V239.692H1165.52ZM1188.59 239.692H1189.59V238.692H1188.59V239.692ZM1188.59 262.769V263.769H1189.59V262.769H1188.59ZM1165.52 262.769H1164.52V263.769H1165.52V262.769ZM1165.52 216.615V215.615H1164.52V216.615H1165.52ZM1188.59 216.615H1189.59V215.615H1188.59V216.615ZM1188.59 239.692V240.692H1189.59V239.692H1188.59ZM1165.52 239.692H1164.52V240.692H1165.52V239.692ZM1119.36 193.538V192.538H1118.36V193.538H1119.36ZM1142.44 193.538H1143.44V192.538H1142.44V193.538ZM1142.44 216.615V217.615H1143.44V216.615H1142.44ZM1119.36 216.615H1118.36V217.615H1119.36V216.615ZM1142.44 193.538V192.538H1141.44V193.538H1142.44ZM1165.52 193.538H1166.52V192.538H1165.52V193.538ZM1165.52 216.615V217.615H1166.52V216.615H1165.52ZM1142.44 216.615H1141.44V217.615H1142.44V216.615ZM1188.59 193.538V192.538H1187.59V193.538H1188.59ZM1211.67 193.538H1212.67V192.538H1211.67V193.538ZM1211.67 216.615V217.615H1212.67V216.615H1211.67ZM1188.59 216.615H1187.59V217.615H1188.59V216.615ZM1073.21 308.923V309.923H1096.29V308.923V307.923H1073.21V308.923ZM1096.29 308.923H1095.29V332H1096.29H1097.29V308.923H1096.29ZM1096.29 332V331H1073.21V332V333H1096.29V332ZM1073.21 332H1074.21V308.923H1073.21H1072.21V332H1073.21ZM1096.29 285.846V286.846H1119.36V285.846V284.846H1096.29V285.846ZM1119.36 285.846H1118.36V308.923H1119.36H1120.36V285.846H1119.36ZM1119.36 308.923V307.923H1096.29V308.923V309.923H1119.36V308.923ZM1096.29 308.923H1097.29V285.846H1096.29H1095.29V308.923H1096.29ZM1096.29 262.769V263.769H1119.36V262.769V261.769H1096.29V262.769ZM1119.36 262.769H1118.36V285.846H1119.36H1120.36V262.769H1119.36ZM1119.36 285.846V284.846H1096.29V285.846V286.846H1119.36V285.846ZM1096.29 285.846H1097.29V262.769H1096.29H1095.29V285.846H1096.29ZM1096.29 239.692V240.692H1119.36V239.692V238.692H1096.29V239.692ZM1119.36 239.692H1118.36V262.769H1119.36H1120.36V239.692H1119.36ZM1119.36 262.769V261.769H1096.29V262.769V263.769H1119.36V262.769ZM1096.29 262.769H1097.29V239.692H1096.29H1095.29V262.769H1096.29ZM1096.29 216.615V217.615H1119.36V216.615V215.615H1096.29V216.615ZM1119.36 216.615H1118.36V239.692H1119.36H1120.36V216.615H1119.36ZM1119.36 239.692V238.692H1096.29V239.692V240.692H1119.36V239.692ZM1096.29 239.692H1097.29V216.615H1096.29H1095.29V239.692H1096.29ZM1119.36 308.923V309.923H1142.44V308.923V307.923H1119.36V308.923ZM1142.44 308.923H1141.44V332H1142.44H1143.44V308.923H1142.44ZM1142.44 332V331H1119.36V332V333H1142.44V332ZM1119.36 332H1120.36V308.923H1119.36H1118.36V332H1119.36ZM1142.44 308.923V309.923H1165.52V308.923V307.923H1142.44V308.923ZM1165.52 308.923H1164.52V332H1165.52H1166.52V308.923H1165.52ZM1165.52 332V331H1142.44V332V333H1165.52V332ZM1142.44 332H1143.44V308.923H1142.44H1141.44V332H1142.44ZM1165.52 285.846V286.846H1188.59V285.846V284.846H1165.52V285.846ZM1188.59 285.846H1187.59V308.923H1188.59H1189.59V285.846H1188.59ZM1188.59 308.923V307.923H1165.52V308.923V309.923H1188.59V308.923ZM1165.52 308.923H1166.52V285.846H1165.52H1164.52V308.923H1165.52ZM1165.52 262.769V263.769H1188.59V262.769V261.769H1165.52V262.769ZM1188.59 262.769H1187.59V285.846H1188.59H1189.59V262.769H1188.59ZM1188.59 285.846V284.846H1165.52V285.846V286.846H1188.59V285.846ZM1165.52 285.846H1166.52V262.769H1165.52H1164.52V285.846H1165.52ZM1165.52 239.692V240.692H1188.59V239.692V238.692H1165.52V239.692ZM1188.59 239.692H1187.59V262.769H1188.59H1189.59V239.692H1188.59ZM1188.59 262.769V261.769H1165.52V262.769V263.769H1188.59V262.769ZM1165.52 262.769H1166.52V239.692H1165.52H1164.52V262.769H1165.52ZM1165.52 216.615V217.615H1188.59V216.615V215.615H1165.52V216.615ZM1188.59 216.615H1187.59V239.692H1188.59H1189.59V216.615H1188.59ZM1188.59 239.692V238.692H1165.52V239.692V240.692H1188.59V239.692ZM1165.52 239.692H1166.52V216.615H1165.52H1164.52V239.692H1165.52ZM1119.36 193.538V194.538H1142.44V193.538V192.538H1119.36V193.538ZM1142.44 193.538H1141.44V216.615H1142.44H1143.44V193.538H1142.44ZM1142.44 216.615V215.615H1119.36V216.615V217.615H1142.44V216.615ZM1119.36 216.615H1120.36V193.538H1119.36H1118.36V216.615H1119.36ZM1142.44 193.538V194.538H1165.52V193.538V192.538H1142.44V193.538ZM1165.52 193.538H1164.52V216.615H1165.52H1166.52V193.538H1165.52ZM1165.52 216.615V215.615H1142.44V216.615V217.615H1165.52V216.615ZM1142.44 216.615H1143.44V193.538H1142.44H1141.44V216.615H1142.44ZM1188.59 193.538V194.538H1211.67V193.538V192.538H1188.59V193.538ZM1211.67 193.538H1210.67V216.615H1211.67H1212.67V193.538H1211.67ZM1211.67 216.615V215.615H1188.59V216.615V217.615H1211.67V216.615ZM1188.59 216.615H1189.59V193.538H1188.59H1187.59V216.615H1188.59ZM1234.64 216.615V215.615H1233.64V216.615H1234.64ZM1257.71 216.615H1258.71V215.615H1257.71V216.615ZM1257.71 239.692V240.692H1258.71V239.692H1257.71ZM1234.64 239.692H1233.64V240.692H1234.64V239.692ZM1257.71 193.538V192.538H1256.71V193.538H1257.71ZM1280.79 193.538H1281.79V192.538H1280.79V193.538ZM1280.79 216.615V217.615H1281.79V216.615H1280.79ZM1257.71 216.615H1256.71V217.615H1257.71V216.615ZM1280.79 216.615V215.615H1279.79V216.615H1280.79ZM1303.87 216.615H1304.87V215.615H1303.87V216.615ZM1303.87 239.692V240.692H1304.87V239.692H1303.87ZM1280.79 239.692H1279.79V240.692H1280.79V239.692ZM1280.79 239.692V238.692H1279.79V239.692H1280.79ZM1303.87 239.692H1304.87V238.692H1303.87V239.692ZM1303.87 262.769V263.769H1304.87V262.769H1303.87ZM1280.79 262.769H1279.79V263.769H1280.79V262.769ZM1280.79 262.769V261.769H1279.79V262.769H1280.79ZM1303.87 262.769H1304.87V261.769H1303.87V262.769ZM1303.87 285.846V286.846H1304.87V285.846H1303.87ZM1280.79 285.846H1279.79V286.846H1280.79V285.846ZM1280.79 285.846V284.846H1279.79V285.846H1280.79ZM1303.87 285.846H1304.87V284.846H1303.87V285.846ZM1303.87 308.923V309.923H1304.87V308.923H1303.87ZM1280.79 308.923H1279.79V309.923H1280.79V308.923ZM1257.71 308.923V307.923H1256.71V308.923H1257.71ZM1280.79 308.923H1281.79V307.923H1280.79V308.923ZM1280.79 332V333H1281.79V332H1280.79ZM1257.71 332H1256.71V333H1257.71V332ZM1303.87 308.923V307.923H1302.87V308.923H1303.87ZM1326.94 308.923H1327.94V307.923H1326.94V308.923ZM1326.94 332V333H1327.94V332H1326.94ZM1303.87 332H1302.87V333H1303.87V332ZM1326.94 308.923V307.923H1325.94V308.923H1326.94ZM1350.02 308.923H1351.02V307.923H1350.02V308.923ZM1350.02 332V333H1351.02V332H1350.02ZM1326.94 332H1325.94V333H1326.94V332ZM1303.87 193.538V192.538H1302.87V193.538H1303.87ZM1326.94 193.538H1327.94V192.538H1326.94V193.538ZM1326.94 216.615V217.615H1327.94V216.615H1326.94ZM1303.87 216.615H1302.87V217.615H1303.87V216.615ZM1326.94 193.538V192.538H1325.94V193.538H1326.94ZM1350.02 193.538H1351.02V192.538H1350.02V193.538ZM1350.02 216.615V217.615H1351.02V216.615H1350.02ZM1326.94 216.615H1325.94V217.615H1326.94V216.615ZM1350.02 216.615V215.615H1349.02V216.615H1350.02ZM1373.1 216.615H1374.1V215.615H1373.1V216.615ZM1373.1 239.692V240.692H1374.1V239.692H1373.1ZM1350.02 239.692H1349.02V240.692H1350.02V239.692ZM1350.02 239.692V238.692H1349.02V239.692H1350.02ZM1373.1 239.692H1374.1V238.692H1373.1V239.692ZM1373.1 262.769V263.769H1374.1V262.769H1373.1ZM1350.02 262.769H1349.02V263.769H1350.02V262.769ZM1350.02 262.769V261.769H1349.02V262.769H1350.02ZM1373.1 262.769H1374.1V261.769H1373.1V262.769ZM1373.1 285.846V286.846H1374.1V285.846H1373.1ZM1350.02 285.846H1349.02V286.846H1350.02V285.846ZM1350.02 285.846V284.846H1349.02V285.846H1350.02ZM1373.1 285.846H1374.1V284.846H1373.1V285.846ZM1373.1 308.923V309.923H1374.1V308.923H1373.1ZM1350.02 308.923H1349.02V309.923H1350.02V308.923ZM1373.1 193.538V192.538H1372.1V193.538H1373.1ZM1396.17 193.538H1397.17V192.538H1396.17V193.538ZM1396.17 216.615V217.615H1397.17V216.615H1396.17ZM1373.1 216.615H1372.1V217.615H1373.1V216.615ZM1396.17 193.538V192.538H1395.17V193.538H1396.17ZM1419.25 193.538H1420.25V192.538H1419.25V193.538ZM1419.25 216.615V217.615H1420.25V216.615H1419.25ZM1396.17 216.615H1395.17V217.615H1396.17V216.615ZM1373.1 308.923V307.923H1372.1V308.923H1373.1ZM1396.17 308.923H1397.17V307.923H1396.17V308.923ZM1396.17 332V333H1397.17V332H1396.17ZM1373.1 332H1372.1V333H1373.1V332ZM1396.17 308.923V307.923H1395.17V308.923H1396.17ZM1419.25 308.923H1420.25V307.923H1419.25V308.923ZM1419.25 332V333H1420.25V332H1419.25ZM1396.17 332H1395.17V333H1396.17V332ZM1419.25 285.846V284.846H1418.25V285.846H1419.25ZM1442.33 285.846H1443.33V284.846H1442.33V285.846ZM1442.33 308.923V309.923H1443.33V308.923H1442.33ZM1419.25 308.923H1418.25V309.923H1419.25V308.923ZM1419.25 262.769V261.769H1418.25V262.769H1419.25ZM1442.33 262.769H1443.33V261.769H1442.33V262.769ZM1442.33 285.846V286.846H1443.33V285.846H1442.33ZM1419.25 285.846H1418.25V286.846H1419.25V285.846ZM1419.25 239.692V238.692H1418.25V239.692H1419.25ZM1442.33 239.692H1443.33V238.692H1442.33V239.692ZM1442.33 262.769V263.769H1443.33V262.769H1442.33ZM1419.25 262.769H1418.25V263.769H1419.25V262.769ZM1419.25 216.615V215.615H1418.25V216.615H1419.25ZM1442.33 216.615H1443.33V215.615H1442.33V216.615ZM1442.33 239.692V240.692H1443.33V239.692H1442.33ZM1419.25 239.692H1418.25V240.692H1419.25V239.692ZM1442.33 193.538V192.538H1441.33V193.538H1442.33ZM1465.4 193.538H1466.4V192.538H1465.4V193.538ZM1465.4 216.615V217.615H1466.4V216.615H1465.4ZM1442.33 216.615H1441.33V217.615H1442.33V216.615ZM1234.64 216.615V217.615H1257.71V216.615V215.615H1234.64V216.615ZM1257.71 216.615H1256.71V239.692H1257.71H1258.71V216.615H1257.71ZM1257.71 239.692V238.692H1234.64V239.692V240.692H1257.71V239.692ZM1234.64 239.692H1235.64V216.615H1234.64H1233.64V239.692H1234.64ZM1257.71 193.538V194.538H1280.79V193.538V192.538H1257.71V193.538ZM1280.79 193.538H1279.79V216.615H1280.79H1281.79V193.538H1280.79ZM1280.79 216.615V215.615H1257.71V216.615V217.615H1280.79V216.615ZM1257.71 216.615H1258.71V193.538H1257.71H1256.71V216.615H1257.71ZM1280.79 216.615V217.615H1303.87V216.615V215.615H1280.79V216.615ZM1303.87 216.615H1302.87V239.692H1303.87H1304.87V216.615H1303.87ZM1303.87 239.692V238.692H1280.79V239.692V240.692H1303.87V239.692ZM1280.79 239.692H1281.79V216.615H1280.79H1279.79V239.692H1280.79ZM1280.79 239.692V240.692H1303.87V239.692V238.692H1280.79V239.692ZM1303.87 239.692H1302.87V262.769H1303.87H1304.87V239.692H1303.87ZM1303.87 262.769V261.769H1280.79V262.769V263.769H1303.87V262.769ZM1280.79 262.769H1281.79V239.692H1280.79H1279.79V262.769H1280.79ZM1280.79 262.769V263.769H1303.87V262.769V261.769H1280.79V262.769ZM1303.87 262.769H1302.87V285.846H1303.87H1304.87V262.769H1303.87ZM1303.87 285.846V284.846H1280.79V285.846V286.846H1303.87V285.846ZM1280.79 285.846H1281.79V262.769H1280.79H1279.79V285.846H1280.79ZM1280.79 285.846V286.846H1303.87V285.846V284.846H1280.79V285.846ZM1303.87 285.846H1302.87V308.923H1303.87H1304.87V285.846H1303.87ZM1303.87 308.923V307.923H1280.79V308.923V309.923H1303.87V308.923ZM1280.79 308.923H1281.79V285.846H1280.79H1279.79V308.923H1280.79ZM1257.71 308.923V309.923H1280.79V308.923V307.923H1257.71V308.923ZM1280.79 308.923H1279.79V332H1280.79H1281.79V308.923H1280.79ZM1280.79 332V331H1257.71V332V333H1280.79V332ZM1257.71 332H1258.71V308.923H1257.71H1256.71V332H1257.71ZM1303.87 308.923V309.923H1326.94V308.923V307.923H1303.87V308.923ZM1326.94 308.923H1325.94V332H1326.94H1327.94V308.923H1326.94ZM1326.94 332V331H1303.87V332V333H1326.94V332ZM1303.87 332H1304.87V308.923H1303.87H1302.87V332H1303.87ZM1326.94 308.923V309.923H1350.02V308.923V307.923H1326.94V308.923ZM1350.02 308.923H1349.02V332H1350.02H1351.02V308.923H1350.02ZM1350.02 332V331H1326.94V332V333H1350.02V332ZM1326.94 332H1327.94V308.923H1326.94H1325.94V332H1326.94ZM1303.87 193.538V194.538H1326.94V193.538V192.538H1303.87V193.538ZM1326.94 193.538H1325.94V216.615H1326.94H1327.94V193.538H1326.94ZM1326.94 216.615V215.615H1303.87V216.615V217.615H1326.94V216.615ZM1303.87 216.615H1304.87V193.538H1303.87H1302.87V216.615H1303.87ZM1326.94 193.538V194.538H1350.02V193.538V192.538H1326.94V193.538ZM1350.02 193.538H1349.02V216.615H1350.02H1351.02V193.538H1350.02ZM1350.02 216.615V215.615H1326.94V216.615V217.615H1350.02V216.615ZM1326.94 216.615H1327.94V193.538H1326.94H1325.94V216.615H1326.94ZM1350.02 216.615V217.615H1373.1V216.615V215.615H1350.02V216.615ZM1373.1 216.615H1372.1V239.692H1373.1H1374.1V216.615H1373.1ZM1373.1 239.692V238.692H1350.02V239.692V240.692H1373.1V239.692ZM1350.02 239.692H1351.02V216.615H1350.02H1349.02V239.692H1350.02ZM1350.02 239.692V240.692H1373.1V239.692V238.692H1350.02V239.692ZM1373.1 239.692H1372.1V262.769H1373.1H1374.1V239.692H1373.1ZM1373.1 262.769V261.769H1350.02V262.769V263.769H1373.1V262.769ZM1350.02 262.769H1351.02V239.692H1350.02H1349.02V262.769H1350.02ZM1350.02 262.769V263.769H1373.1V262.769V261.769H1350.02V262.769ZM1373.1 262.769H1372.1V285.846H1373.1H1374.1V262.769H1373.1ZM1373.1 285.846V284.846H1350.02V285.846V286.846H1373.1V285.846ZM1350.02 285.846H1351.02V262.769H1350.02H1349.02V285.846H1350.02ZM1350.02 285.846V286.846H1373.1V285.846V284.846H1350.02V285.846ZM1373.1 285.846H1372.1V308.923H1373.1H1374.1V285.846H1373.1ZM1373.1 308.923V307.923H1350.02V308.923V309.923H1373.1V308.923ZM1350.02 308.923H1351.02V285.846H1350.02H1349.02V308.923H1350.02ZM1373.1 193.538V194.538H1396.17V193.538V192.538H1373.1V193.538ZM1396.17 193.538H1395.17V216.615H1396.17H1397.17V193.538H1396.17ZM1396.17 216.615V215.615H1373.1V216.615V217.615H1396.17V216.615ZM1373.1 216.615H1374.1V193.538H1373.1H1372.1V216.615H1373.1ZM1396.17 193.538V194.538H1419.25V193.538V192.538H1396.17V193.538ZM1419.25 193.538H1418.25V216.615H1419.25H1420.25V193.538H1419.25ZM1419.25 216.615V215.615H1396.17V216.615V217.615H1419.25V216.615ZM1396.17 216.615H1397.17V193.538H1396.17H1395.17V216.615H1396.17ZM1373.1 308.923V309.923H1396.17V308.923V307.923H1373.1V308.923ZM1396.17 308.923H1395.17V332H1396.17H1397.17V308.923H1396.17ZM1396.17 332V331H1373.1V332V333H1396.17V332ZM1373.1 332H1374.1V308.923H1373.1H1372.1V332H1373.1ZM1396.17 308.923V309.923H1419.25V308.923V307.923H1396.17V308.923ZM1419.25 308.923H1418.25V332H1419.25H1420.25V308.923H1419.25ZM1419.25 332V331H1396.17V332V333H1419.25V332ZM1396.17 332H1397.17V308.923H1396.17H1395.17V332H1396.17ZM1419.25 285.846V286.846H1442.33V285.846V284.846H1419.25V285.846ZM1442.33 285.846H1441.33V308.923H1442.33H1443.33V285.846H1442.33ZM1442.33 308.923V307.923H1419.25V308.923V309.923H1442.33V308.923ZM1419.25 308.923H1420.25V285.846H1419.25H1418.25V308.923H1419.25ZM1419.25 262.769V263.769H1442.33V262.769V261.769H1419.25V262.769ZM1442.33 262.769H1441.33V285.846H1442.33H1443.33V262.769H1442.33ZM1442.33 285.846V284.846H1419.25V285.846V286.846H1442.33V285.846ZM1419.25 285.846H1420.25V262.769H1419.25H1418.25V285.846H1419.25ZM1419.25 239.692V240.692H1442.33V239.692V238.692H1419.25V239.692ZM1442.33 239.692H1441.33V262.769H1442.33H1443.33V239.692H1442.33ZM1442.33 262.769V261.769H1419.25V262.769V263.769H1442.33V262.769ZM1419.25 262.769H1420.25V239.692H1419.25H1418.25V262.769H1419.25ZM1419.25 216.615V217.615H1442.33V216.615V215.615H1419.25V216.615ZM1442.33 216.615H1441.33V239.692H1442.33H1443.33V216.615H1442.33ZM1442.33 239.692V238.692H1419.25V239.692V240.692H1442.33V239.692ZM1419.25 239.692H1420.25V216.615H1419.25H1418.25V239.692H1419.25ZM1442.33 193.538V194.538H1465.4V193.538V192.538H1442.33V193.538ZM1465.4 193.538H1464.4V216.615H1465.4H1466.4V193.538H1465.4ZM1465.4 216.615V215.615H1442.33V216.615V217.615H1465.4V216.615ZM1442.33 216.615H1443.33V193.538H1442.33H1441.33V216.615H1442.33Z" fill="#BD0A0D" mask="url(#path-3-outside-1_2025_18)"/>
<defs>
<linearGradient id="paint0_linear_2025_18" x1="960.658" y1="211.974" x2="960.657" y2="410.134" gradientUnits="userSpaceOnUse">
<stop stop-color="#E11A3B"/>
<stop offset="0.716346" stop-color="#990003" stop-opacity="0"/>
</linearGradient>
</defs>
</svg>
